0
SECTION
2
HEADER
9
$INSUNITS
70
4
9
$ACADVER
1
AC1014
9
$HANDSEED
5
FFFF
0
ENDSEC
0
SECTION
2
TABLES
0
TABLE
2
VPORT
5
8
100
AcDbSymbolTable
0
ENDTAB
0
TABLE
2
LTYPE
5
5
100
AcDbSymbolTable
0
LTYPE
5
14
100
AcDbSymbolTableRecord
100
AcDbLinetypeTableRecord
2
BYBLOCK
70
0
0
LTYPE
5
15
100
AcDbSymbolTableRecord
100
AcDbLinetypeTableRecord
2
BYLAYER
70
0
0
ENDTAB
0
TABLE
2
LAYER
5
2
100
AcDbSymbolTable
70
2
0
LAYER
5
50
100
AcDbSymbolTableRecord
100
AcDbLayerTableRecord
2
0
70
0
6
CONTINUOUS
0
ENDTAB
0
TABLE
2
STYLE
5
3
100
AcDbSymbolTable
70
1
0
STYLE
5
11
100
AcDbSymbolTableRecord
100
AcDbTextStyleTableRecord
2
STANDARD
70
0
0
ENDTAB
0
TABLE
2
VIEW
5
6
100
AcDbSymbolTable
70
0
0
ENDTAB
0
TABLE
2
UCS
5
7
100
AcDbSymbolTable
70
0
0
ENDTAB
0
TABLE
2
APPID
5
9
100
AcDbSymbolTable
70
2
0
APPID
5
12
100
AcDbSymbolTableRecord
100
AcDbRegAppTableRecord
2
ACAD
70
0
0
ENDTAB
0
TABLE
2
DIMSTYLE
5
A
100
AcDbSymbolTable
70
1
0
ENDTAB
0
TABLE
2
BLOCK_RECORD
5
1
100
AcDbSymbolTable
70
1
0
BLOCK_RECORD
5
1F
100
AcDbSymbolTableRecord
100
AcDbBlockTableRecord
2
*MODEL_SPACE
0
BLOCK_RECORD
5
1B
100
AcDbSymbolTableRecord
100
AcDbBlockTableRecord
2
*PAPER_SPACE
0
ENDTAB
0
ENDSEC
0
SECTION
2
BLOCKS
0
BLOCK
5
20
100
AcDbEntity
100
AcDbBlockBegin
2
*MODEL_SPACE
0
ENDBLK
5
21
100
AcDbEntity
100
AcDbBlockEnd
0
BLOCK
5
1C
100
AcDbEntity
100
AcDbBlockBegin
2
*PAPER_SPACE
0
ENDBLK
5
1D
100
AcDbEntity
100
AcDbBlockEnd
0
ENDSEC
0
SECTION
2
ENTITIES
0
SPLINE
5
100
100
AcDbEntity
8
0
100
AcDbSpline
70
4
71
3
72
8
73
4
74
0
42
0.000000001
43
0.0000000001
44
0.0000000001
40
0
40
0
40
0
40
0
40
1
40
1
40
1
40
1
41
1
41
1
41
1
41
1
10
12.435416666666669
20
-52.953311575396384
30
0
10
8.0168750000000006
20
-51.78914490872971
30
0
10
3.757083333333334
20
-48.349561575396379
30
0
10
1.7727083333333338
20
-44.354353242063041
30
0
0
SPLINE
5
101
100
AcDbEntity
8
0
100
AcDbSpline
70
4
71
3
72
8
73
4
74
0
42
0.000000001
43
0.0000000001
44
0.0000000001
40
0
40
0
40
0
40
0
40
1
40
1
40
1
40
1
41
1
41
1
41
1
41
1
10
1.7727083333333338
20
-44.354353242063041
30
0
10
-0.60854166666666676
20
-39.512478242063054
30
0
10
-0.50270833333333342
20
-34.167894908729714
30
0
10
2.0637500000000006
20
-29.167269908729708
30
0
0
SPLINE
5
102
100
AcDbEntity
8
0
100
AcDbSpline
70
4
71
3
72
8
73
4
74
0
42
0.000000001
43
0.0000000001
44
0.0000000001
40
0
40
0
40
0
40
0
40
1
40
1
40
1
40
1
41
1
41
1
41
1
41
1
10
2.0637500000000006
20
-29.167269908729708
30
0
10
2.9104166666666669
20
-27.500394908729714
30
0
10
4.3391666666666682
20
-25.99226990872971
30
0
10
15.980833333333337
20
-14.29768657539638
30
0
0
SPLINE
5
103
100
AcDbEntity
8
0
100
AcDbSpline
70
4
71
3
72
8
73
4
74
0
42
0.000000001
43
0.0000000001
44
0.0000000001
40
0
40
0
40
0
40
0
40
1
40
1
40
1
40
1
41
1
41
1
41
1
41
1
10
15.980833333333337
20
-14.29768657539638
30
0
10
27.41083333333334
20
-2.8147699087297084
30
0
10
29.05125000000001
20
-1.2537282420630369
30
0
10
29.765625000000004
20
-1.2537282420630369
30
0
0
SPLINE
5
104
100
AcDbEntity
8
0
100
AcDbSpline
70
4
71
3
72
8
73
4
74
0
42
0.000000001
43
0.0000000001
44
0.0000000001
40
0
40
0
40
0
40
0
40
1
40
1
40
1
40
1
41
1
41
1
41
1
41
1
10
29.765625000000004
20
-1.2537282420630369
30
0
10
30.453541666666673
20
-1.2537282420630369
30
0
10
32.120416666666671
20
-2.8147699087297084
30
0
10
43.550416666666678
20
-14.271228242063039
30
0
0
SPLINE
5
105
100
AcDbEntity
8
0
100
AcDbSpline
70
4
71
3
72
8
73
4
74
0
42
0.000000001
43
0.0000000001
44
0.0000000001
40
0
40
0
40
0
40
0
40
1
40
1
40
1
40
1
41
1
41
1
41
1
41
1
10
43.550416666666678
20
-14.271228242063039
30
0
10
55.218541666666681
20
-26.018728242063048
30
0
10
56.620833333333344
20
-27.500394908729714
30
0
10
57.467500000000015
20
-29.167269908729708
30
0
0
SPLINE
5
106
100
AcDbEntity
8
0
100
AcDbSpline
70
4
71
3
72
8
73
4
74
0
42
0.000000001
43
0.0000000001
44
0.0000000001
40
0
40
0
40
0
40
0
40
1
40
1
40
1
40
1
41
1
41
1
41
1
41
1
10
57.467500000000015
20
-29.167269908729708
30
0
10
58.975625000000008
20
-32.104144908729708
30
0
10
59.372500000000002
20
-33.797478242063043
30
0
10
59.372500000000002
20
-37.104769908729708
30
0
0
SPLINE
5
107
100
AcDbEntity
8
0
100
AcDbSpline
70
4
71
3
72
8
73
4
74
0
42
0.000000001
43
0.0000000001
44
0.0000000001
40
0
40
0
40
0
40
0
40
1
40
1
40
1
40
1
41
1
41
1
41
1
41
1
10
59.372500000000002
20
-37.104769908729708
30
0
10
59.372500000000002
20
-39.644769908729714
30
0
10
59.26666666666668
20
-40.30622824206305
30
0
10
58.578750000000007
20
-42.264144908729705
30
0
0
SPLINE
5
108
100
AcDbEntity
8
0
100
AcDbSpline
70
4
71
3
72
8
73
4
74
0
42
0.000000001
43
0.0000000001
44
0.0000000001
40
0
40
0
40
0
40
0
40
1
40
1
40
1
40
1
41
1
41
1
41
1
41
1
10
58.578750000000007
20
-42.264144908729705
30
0
10
56.065208333333345
20
-49.407894908729716
30
0
10
49.609375000000007
20
-53.720603242063049
30
0
10
42.095208333333346
20
-53.297269908729717
30
0
0
SPLINE
5
109
100
AcDbEntity
8
0
100
AcDbSpline
70
4
71
3
72
8
73
4
74
0
42
0.000000001
43
0.0000000001
44
0.0000000001
40
0
40
0
40
0
40
0
40
1
40
1
40
1
40
1
41
1
41
1
41
1
41
1
10
42.095208333333346
20
-53.297269908729717
30
0
10
38.04708333333334
20
-53.085603242063051
30
0
10
34.766250000000007
20
-51.63039490872972
30
0
10
31.406041666666674
20
-48.587686575396383
30
0
0
LINE
5
110
100
AcDbEntity
8
0
100
AcDbLine
10
31.406041666666674
20
-48.587686575396376
30
0
11
29.765625000000004
21
-47.106019908729721
31
0
0
LINE
5
111
100
AcDbEntity
8
0
100
AcDbLine
10
29.765625000000004
20
-47.106019908729721
30
0
11
27.940000000000005
21
-48.772894908729718
31
0
0
SPLINE
5
112
100
AcDbEntity
8
0
100
AcDbSpline
70
4
71
3
72
8
73
4
74
0
42
0.000000001
43
0.0000000001
44
0.0000000001
40
0
40
0
40
0
40
0
40
1
40
1
40
1
40
1
41
1
41
1
41
1
41
1
10
27.940000000000005
20
-48.772894908729718
30
0
10
25.796875000000004
20
-50.730811575396388
30
0
10
22.75416666666667
20
-52.397686575396385
30
0
10
20.346458333333338
20
-52.979769908729715
30
0
0
SPLINE
5
113
100
AcDbEntity
8
0
100
AcDbSpline
70
4
71
3
72
8
73
4
74
0
42
0.000000001
43
0.0000000001
44
0.0000000001
40
0
40
0
40
0
40
0
40
1
40
1
40
1
40
1
41
1
41
1
41
1
41
1
10
20.346458333333338
20
-52.979769908729715
30
0
10
18.229791666666671
20
-53.456019908729715
30
0
10
14.34041666666667
20
-53.456019908729715
30
0
10
12.435416666666669
20
-52.953311575396384
30
0
0
SPLINE
5
114
100
AcDbEntity
8
0
100
AcDbSpline
70
4
71
3
72
8
73
4
74
0
42
0.000000001
43
0.0000000001
44
0.0000000001
40
0
40
0
40
0
40
0
40
1
40
1
40
1
40
1
41
1
41
1
41
1
41
1
10
18.388541666666669
20
-49.937061575396378
30
0
10
21.298958333333339
20
-49.513728242063053
30
0
10
23.600833333333338
20
-48.243728242063057
30
0
10
26.696458333333339
20
-45.306853242063042
30
0
0
SPLINE
5
115
100
AcDbEntity
8
0
100
AcDbSpline
70
4
71
3
72
8
73
4
74
0
42
0.000000001
43
0.0000000001
44
0.0000000001
40
0
40
0
40
0
40
0
40
1
40
1
40
1
40
1
41
1
41
1
41
1
41
1
10
26.696458333333339
20
-45.306853242063042
30
0
10
28.151666666666671
20
-43.931019908729716
30
0
10
29.553958333333338
20
-42.79331157539638
30
0
10
29.765625000000004
20
-42.79331157539638
30
0
0
SPLINE
5
116
100
AcDbEntity
8
0
100
AcDbSpline
70
4
71
3
72
8
73
4
74
0
42
0.000000001
43
0.0000000001
44
0.0000000001
40
0
40
0
40
0
40
0
40
1
40
1
40
1
40
1
41
1
41
1
41
1
41
1
10
29.765625000000004
20
-42.79331157539638
30
0
10
30.003750000000004
20
-42.79331157539638
30
0
10
31.247291666666676
20
-43.798728242063049
30
0
10
32.517291666666672
20
-45.015811575396384
30
0
0
SPLINE
5
117
100
AcDbEntity
8
0
100
AcDbSpline
70
4
71
3
72
8
73
4
74
0
42
0.000000001
43
0.0000000001
44
0.0000000001
40
0
40
0
40
0
40
0
40
1
40
1
40
1
40
1
41
1
41
1
41
1
41
1
10
32.517291666666672
20
-45.015811575396384
30
0
10
36.697708333333345
20
-49.037478242063052
30
0
10
39.131875000000008
20
-50.09581157539639
30
0
10
43.788541666666674
20
-49.884144908729709
30
0
0
SPLINE
5
118
100
AcDbEntity
8
0
100
AcDbSpline
70
4
71
3
72
8
73
4
74
0
42
0.000000001
43
0.0000000001
44
0.0000000001
40
0
40
0
40
0
40
0
40
1
40
1
40
1
40
1
41
1
41
1
41
1
41
1
10
43.788541666666674
20
-49.884144908729709
30
0
10
46.222708333333344
20
-49.778311575396387
30
0
10
46.698958333333344
20
-49.672478242063043
30
0
10
48.55104166666667
20
-48.799353242063049
30
0
0
SPLINE
5
119
100
AcDbEntity
8
0
100
AcDbSpline
70
4
71
3
72
8
73
4
74
0
42
0.000000001
43
0.0000000001
44
0.0000000001
40
0
40
0
40
0
40
0
40
1
40
1
40
1
40
1
41
1
41
1
41
1
41
1
10
48.55104166666667
20
-48.799353242063049
30
0
10
55.456666666666685
20
-45.518519908729715
30
0
10
58.076041666666676
20
-37.448728242063048
30
0
10
54.477708333333339
20
-30.622478242063043
30
0
0
SPLINE
5
120
100
AcDbEntity
8
0
100
AcDbSpline
70
4
71
3
72
8
73
4
74
0
42
0.000000001
43
0.0000000001
44
0.0000000001
40
0
40
0
40
0
40
0
40
1
40
1
40
1
40
1
41
1
41
1
41
1
41
1
10
54.477708333333339
20
-30.622478242063043
30
0
10
53.869166666666679
20
-29.48476990872971
30
0
10
50.985208333333347
20
-26.44206157539638
30
0
10
41.724791666666682
20
-17.181644908729705
30
0
0
LINE
5
121
100
AcDbEntity
8
0
100
AcDbLine
10
41.724791666666682
20
-17.181644908729705
30
0
11
29.765625000000007
21
-5.2224782420630405
31
0
0
LINE
5
122
100
AcDbEntity
8
0
100
AcDbLine
10
29.765625000000007
20
-5.2224782420630405
30
0
11
17.700625000000002
21
-17.313936575396372
31
0
0
SPLINE
5
123
100
AcDbEntity
8
0
100
AcDbSpline
70
4
71
3
72
8
73
4
74
0
42
0.000000001
43
0.0000000001
44
0.0000000001
40
0
40
0
40
0
40
0
40
1
40
1
40
1
40
1
41
1
41
1
41
1
41
1
10
17.700625000000002
20
-17.313936575396372
30
0
10
8.9429166666666688
20
-26.151019908729715
30
0
10
5.4768750000000015
20
-29.802269908729713
30
0
10
4.9477083333333338
20
-30.781228242063044
30
0
0
SPLINE
5
124
100
AcDbEntity
8
0
100
AcDbSpline
70
4
71
3
72
8
73
4
74
0
42
0.000000001
43
0.0000000001
44
0.0000000001
40
0
40
0
40
0
40
0
40
1
40
1
40
1
40
1
41
1
41
1
41
1
41
1
10
4.9477083333333338
20
-30.781228242063044
30
0
10
0.76729166666666682
20
-38.745186575396382
30
0
10
5.5562500000000004
20
-48.428936575396392
30
0
10
14.419791666666669
20
-49.910603242063047
30
0
0
SPLINE
5
125
100
AcDbEntity
8
0
100
AcDbSpline
70
4
71
3
72
8
73
4
74
0
42
0.000000001
43
0.0000000001
44
0.0000000001
40
0
40
0
40
0
40
0
40
1
40
1
40
1
40
1
41
1
41
1
41
1
41
1
10
14.419791666666669
20
-49.910603242063047
30
0
10
16.245416666666671
20
-50.22810324206305
30
0
10
16.298333333333336
20
-50.22810324206305
30
0
10
18.388541666666669
20
-49.937061575396378
30
0
0
ENDSEC
0
SECTION
2
OBJECTS
0
DICTIONARY
5
C
100
AcDbDictionary
3
ACAD_GROUP
350
D
3
ACAD_MLINESTYLE
350
17
0
DICTIONARY
5
D
100
AcDbDictionary
0
DICTIONARY
5
1A
330
C
100
AcDbDictionary
0
DICTIONARY
5
17
100
AcDbDictionary
0
ENDSEC
0
EOF
