<svg xmlns="http://www.w3.org/2000/svg" width="612" height="612" viewBox="0 0 612 612"><path fill="#6EA041" d="M587.108 442.843c0 15.797-6.636 38.841-46.853 47.554-40.532 8.778-71.893 18.526-62.099 44.504a49.875 49.875 0 0 0 3.251 4.689l2.153 3.483c2.626-.076 41.212-3.117 43.483-5.389 2.271-2.271 24.793-8.95 24.793-8.95l4.982-9.977 16.018-15.979s-16.23 38.288-58.95 63.488c17.645 5.197 39.733 3.102 57.915-12.63 50.247-43.463 15.307-110.793 15.307-110.793z"/><path fill="#5A7F39" d="M572.838 502.778l-16.018 15.979-4.982 9.977s-22.521 6.68-24.793 8.95c-2.271 2.271-40.857 5.312-43.483 5.389l2.877 4.659s.265.197.721.514c5.361 7.984 15.079 14.59 26.729 18.021 43.556-20.429 58.949-63.489 58.949-63.489z"/><path fill="#6EA041" d="M192.81 273.627s20.631 44.507-32.485 95.92c-53.108 51.418-36.496 147.155 17.251 170.133 0 0-14.609-34.38 13.959-59.173 28.568-24.793-8.56-69.912 13.788-124.111 24.859-60.266-8.195-113.742-8.195-113.742M224.305 400.957c34.456 25.669-4.447 75.008 7.88 90.867 22.763 29.303 22.31 46.646 22.31 46.646l-7.444 10.641h37.494c10.471-18.365 4.704-39.354 4.704-39.354 20.944-28.031 32.294-56.004 36.182-82.755-5.509-.071-11.022-.12-16.531-.104"/><path fill="none" d="M463.315 554.658a155.503 155.503 0 0 1-18.687-1.718 100.31 100.31 0 0 0 18.496 1.718h.191z"/><path fill="#8EC65E" d="M512.521 532.392c-2.757.03-5.555-.057-8.383-.248-56.889-3.964-125.817-53.758-125.817-150.245l-37.08 70.717c11.159 26.229 43.781 89.191 103.389 100.325a155.485 155.485 0 0 0 18.687 1.718c1.698 0 3.306.027 4.881.065 18.321-.063 33.681-3.625 45.997-8.386l.085.125c.439-.248.859-.434 1.291-.66l-3.05-13.411z"/><path fill="#7AB344" d="M444.629 552.94c-59.607-11.134-92.229-74.096-103.389-100.325l-20.794 39.646c49.122 38.692 90.559 55.561 124.183 60.679zM468.196 554.724a200.338 200.338 0 0 0-4.881-.065c1.65.051 3.277.072 4.881.065z"/><path fill="#8EC65E" d="M47.361 305.851s-26.005-12.972-28.025-49.374c-2.012-36.4 45.962-115.786 178.206-85.583 132.246 30.207 251.58 190.912 130.63 352.782 0 0 7.659 27.878-6.245 52.276h-49.794l9.875-14.135s.606-23.041-29.636-61.957c-16.367-21.07.805-45.113-3.224-75.319 0 0-18.146-29.432-53.217-37.95-35.079-8.52-53.217-52.663-58.461-83.645 0 0-33.261-8.131-53.217-3.775-19.962 4.356-31.451-6.68-31.451-6.68l-5.441 13.36z"/><path fill="#B6D774" d="M47.361 305.851l6.649-20.328s34.476 4.356 51.408 2.034c16.935-2.326 19.65-9.589 19.65-9.589s119.234 3.811 124.592 154.127c0 0-3.939-25.366-41.638-38.726-37.696-13.358-68.542-30.015-73.378-87.327 0 0-19.954-8.128-47.37-5.224-27.414 2.901-31.85-4.064-31.85-4.064"/><path fill="#8EC65E" d="M178.349 269.647s16.935 48.79-44.349 97.583c-61.278 48.795-54.022 151.021 0 180.454 0 0-11.688-37.561 20.969-60.798 32.655-23.234-1.545-74.298 27.72-129.044 32.535-60.874 17.625-112.21 17.625-112.21M465.058 554.693c78.349 0 107.78-51.915 107.78-51.915s-41.931 40.02-95.898 24.16"/><path fill="#7AB344" d="M202.222 269.451s8.055 37.969-6.041 71.457c-12.846 30.512-24.812 46.418-21.302 79.092 9.221 85.809-49.281 61.379-40.879 127.685 0 0-21.188-37.173 5.14-69.847 26.33-32.674 14.854-73.728 37.647-112.196 32.748-55.271 25.435-96.191 25.435-96.191z"/><path fill="#6EA041" d="M367.461 450.407s-22.293 53.261-47.665 70.974c0 0 7.692 28.094-4.389 47.026l-43.276 7.545h49.794s16.688-21.134 7.629-51.67c.001 0 33.687-41.63 37.907-73.875z"/><path fill="#6EA041" d="M355.363 481.381l-19.08 28.09s166.176 109.323 236.555-6.692c0 0-31.378 46.333-107.085 39.675-32.54-2.864-70.375-16.308-110.39-61.073z"/><path fill="#6EA041" d="M319.796 521.381s49.555-49.021 39.591-139.482c-9.963-90.46-68.282-159.455-160.587-199.164h57.298l54.91 44.575s58.862 39.992 71.53 142.755c12.671 102.763-52.982 154.217-52.982 154.217"/><path fill="#6EA041" d="M345.832 234.558c-11.293-.161-43.339-2.288-64.396-20.435 9.671 26.978 25.898 28.59 44.204 31.2 22.79 3.251 28.053 15.256 28.053 15.256-1.979-10.591-4.698-19.129-7.861-26.021z"/><path fill="#5A7F39" d="M345.832 234.558c-15.911-34.549-43.574-27.182-50.51-25.452-8.333 2.069-16.11-2.022-16.11-2.022a89.716 89.716 0 0 0 2.225 7.04c21.056 18.146 53.102 20.272 64.395 20.434z"/><path fill="#6EA041" d="M341.765 189.813c-17.009 4.307-65.976 14.014-105.425-4.722 26.21 36.561 51.252 32.444 79.837 28.983 35.573-4.291 48.678 11.587 48.678 11.587-7.57-15.081-15.352-26.794-23.09-35.848z"/><path fill="#5A7F39" d="M341.765 189.813c-38.868-45.399-77.143-23.224-86.792-17.835-11.59 6.456-25.025 3.45-25.025 3.45 2.129 3.51 4.255 6.72 6.393 9.663 40.362 24.687 88.415 9.029 105.424 4.722z"/><path fill="#6EA041" d="M301.011 148.366c-19.44 11.939-76.542 42.948-133.619 34.77 47.968 35.543 77.536 20.748 111.788 5.407 42.631-19.088 65.618-4.312 65.618-4.312-15.745-15.914-30.344-27.545-43.787-35.865z"/><path fill="#5A7F39" d="M301.011 148.366c-67.482-41.715-106.02.75-115.827 11.197-11.77 12.535-29.805 13.965-29.805 13.965a196.606 196.606 0 0 0 12.013 9.608c62.555 9.292 114.178-22.83 133.619-34.77z"/><g><path fill="#6EA041" d="M228.937 95.22c-16.367 20.693-66.156 76.995-132.382 90.152 67.723 20.502 94.023-7.27 125.255-37.451 38.878-37.568 70.387-30.223 70.387-30.223-24.03-11.396-44.971-18.545-63.26-22.478z"/><path fill="#5A7F39" d="M228.937 95.22c-91.773-19.711-116.321 41.987-122.722 57.301-7.678 18.365-26.912 26.941-26.912 26.941a240.01 240.01 0 0 0 17.251 5.91c66.227-13.157 116.016-69.459 132.383-90.152z"/></g><path fill="#6EA041" d="M80.87 154.532c.961 20.006-11.836 37.036-11.836 37.036 87.139-37.972 102.384-73.845 113.878-110.374a85.172 85.172 0 0 1 2.263-6.287c12.715-31.65 39.13-42.459 39.13-42.459C73.831 42.688 79.909 134.527 80.87 154.532z"/><g><g fill="#8EC65E"><path d="M224.299 32.449a267.73 267.73 0 0 0-17.874 1.695 335.584 335.584 0 0 1 17.874-1.695zM92.493 151.838c1.419-27.594 5.838-103.672 113.933-117.694C74.349 50.181 75.269 134.652 77.209 153.76c2.64 26.167-8.178 37.806-8.178 37.806s21.876-8.979 23.462-39.728z"/></g></g><path fill="#6EA041" d="M399.447 464.847c-9.897-17.639-15.349-39.143-15.349-63.89l-28.95 75.84 5.724 20.765s-9.856 32.065 19.395 14.926a121.348 121.348 0 0 1 4.44-2.459c-1.466-10.603-1.643-28.359 14.74-45.182z"/><path fill="#6EA041" d="M383.673 381.898c1.774 39.694 4.349 66.309 15.774 82.948 0 0-12.824-7.998-13.566-8.713-.742-.712-2.658-20.357-3.344-29.111-.683-8.754-1.528-20.562-2.59-24.229-1.06-3.663-3.816-14.047-3.816-14.047M399.447 464.847s-26.403 55.005 45.182 74.22l-8.077 2.792s-25.506-5.634-45.771-13.124c-20.266-7.49-24.33-10.097-25.545-11.312-1.214-1.215 0-10.154 0-12.949 0-2.796 4.231-13.627 4.231-17.121 0-3.493 7.831-22.506 7.831-22.506"/><g><path fill="#557635" d="M75.618 257.244c2.018 2.225 6.115 1.851 9.155-.841 3.016-2.689 3.835-6.663 1.818-8.872-2.017-2.222-6.109-1.84-9.133.841-3.035 2.694-3.86 6.658-1.84 8.872z"/><path fill="#FFF" d="M84.37 252.595c-1.07.939-2.566 1.016-3.352.145-.792-.874-.565-2.345.497-3.278 1.065-.953 2.563-1.007 3.352-.145.791.865.564 2.336-.497 3.278z"/></g></svg>
