<svg xmlns="http://www.w3.org/2000/svg" width="612" height="612" viewBox="0 0 612 612"><radialGradient id="a" cx="346.535" cy="299.161" r="204.704" gradientTransform="matrix(1 0 0 -1 0 435)" gradientUnits="userSpaceOnUse"><stop offset="0" stop-color="#c64e7f"/><stop offset="1" stop-color="#833672"/></radialGradient><path fill="url(#a)" d="M381.925 449.934c-29.497-59.999-23.449-112.536-21.52-156.025 62.297-18.95 106.627-67.433 106.627-124.273 0-73.351-73.768-132.811-164.764-132.811-90.999 0-162.127 83-162.127 156.344 0 67.366 60.029 103.143 140.324 108.529-.263 4.154-.548 7.518-.893 9.528 0 0-2.944 110.224-34.812 185.831-13.307 31.561-50.691-3.661-69.387 17.734-7.094 8.123-17.908 46.535 17.918 76.725 35.83 30.185 84.109 24.36 103.591-36.479 16.327-50.981 21.228-81.874 15.785-181.689.065.04.647-35.648.725-35.604 5.396 90.136 13.618 137.866 30.014 180.019 21.883 56.272 62.971 52.349 90.319 15.286 27.369-37.062 14.812-72.884 8.1-79.502-17.641-17.415-45.862 24.947-59.9-3.613z"/><radialGradient id="b" cx="-524.076" cy="-70.075" r="45.127" gradientTransform="matrix(-1 0 0 1 -309.743 235.883)" gradientUnits="userSpaceOnUse"><stop offset="0" stop-color="#c64e7f"/><stop offset="1" stop-color="#833672"/></radialGradient><circle fill="url(#b)" cx="214.333" cy="165.807" r="45.127"/><radialGradient id="c" cx="608.418" cy="-48.799" r="55.605" gradientTransform="translate(-384.364 235.883)" gradientUnits="userSpaceOnUse"><stop offset="0" stop-color="#fff"/><stop offset="1" stop-color="#f6f6f6"/></radialGradient><path fill="url(#c)" d="M250.435 165.809c0-19.945-16.157-36.102-36.105-36.102-19.938 0-36.099 16.157-36.099 36.102 0 19.927 16.161 36.096 36.099 36.096 19.948-.002 36.105-16.169 36.105-36.096z"/><radialGradient id="d" cx="589.265" cy="-63.117" r="26.64" gradientTransform="translate(-384.364 235.883)" gradientUnits="userSpaceOnUse"><stop offset="0" stop-color="#585857"/><stop offset="1" stop-color="#3d3d3c"/></radialGradient><circle fill="url(#d)" cx="200.249" cy="162.574" r="17.288"/><radialGradient id="e" cx="2531.014" cy="1095.469" r="22.784" gradientTransform="matrix(.2011 -.1966 .3189 .37 -650.784 253.18)" gradientUnits="userSpaceOnUse"><stop offset="0" stop-color="#fff"/><stop offset="1" stop-color="#f6f6f6"/></radialGradient><path fill="url(#e)" d="M206.945 155.56c-2.605-3.028-6.048-4.176-7.695-2.571-1.648 1.614-.864 5.363 1.742 8.394 2.609 3.021 6.048 4.169 7.697 2.551 1.644-1.601.856-5.347-1.744-8.374z"/><g><radialGradient id="f" cx="-646.148" cy="-179.8" r="45.126" gradientTransform="matrix(-1 0 0 .6115 -309.743 271.059)" gradientUnits="userSpaceOnUse"><stop offset="0" stop-color="#c64e7f"/><stop offset="1" stop-color="#833672"/></radialGradient><ellipse fill="url(#f)" cx="336.404" cy="161.111" rx="45.124" ry="27.595"/><radialGradient id="g" cx="730.487" cy="-124.158" r="55.611" gradientTransform="matrix(1 0 0 .6879 -384.364 263.918)" gradientUnits="userSpaceOnUse"><stop offset="0" stop-color="#fff"/><stop offset="1" stop-color="#f6f6f6"/></radialGradient><ellipse fill="url(#g)" cx="336.404" cy="163.872" rx="36.096" ry="24.84"/><radialGradient id="h" cx="711.345" cy="-63.117" r="26.631" gradientTransform="translate(-384.364 235.883)" gradientUnits="userSpaceOnUse"><stop offset="0" stop-color="#585857"/><stop offset="1" stop-color="#3d3d3c"/></radialGradient><circle fill="url(#h)" cx="322.326" cy="162.574" r="17.288"/><radialGradient id="i" cx="-382.724" cy="373.04" r="22.784" gradientTransform="matrix(-.1777 .218 -.3585 -.3318 386.631 363.643)" gradientUnits="userSpaceOnUse"><stop offset="0" stop-color="#fff"/><stop offset="1" stop-color="#f6f6f6"/></radialGradient><path fill="url(#i)" d="M322.12 161.688c2.928 2.717 6.476 3.463 7.926 1.686 1.451-1.781.253-5.423-2.674-8.139-2.936-2.704-6.48-3.464-7.94-1.669-1.447 1.77-.251 5.406 2.688 8.122z"/></g><linearGradient id="j" gradientUnits="userSpaceOnUse" x1="250.15" y1="200.765" x2="294.818" y2="200.765" gradientTransform="matrix(1 0 0 -1 0 435)"><stop offset="0" stop-color="#585857"/><stop offset="1" stop-color="#3d3d3c"/></linearGradient><path opacity=".73" fill="url(#j)" d="M250.15 226.378h44.668s-19.969 35.357-44.668 0z"/><path fill="#EB809F" d="M201.786 4.65c.031-.006-.236 4.621.264 11.418.48 6.81 2.058 15.674 5.095 23.951 2.963 8.309 7.236 16.082 10.893 22.089 3.664 5.999 6.592 10.292 7.016 11.27 1.742 3.863-2.246 9.664-9.052 12.909-6.802 3.237-13.915 2.526-15.817-1.726-.465-1.066-2.041-6.478-3.657-14.283-1.614-7.792-3.09-18.101-2.867-28.208.138-10.12 2.073-19.718 4.155-26.476 2.07-6.78 4.001-10.931 3.97-10.944zM419.908 5.402c-.033-.006-.401 4.611-1.856 11.275-1.43 6.674-4.227 15.236-8.399 23.003-4.087 7.812-9.413 14.913-13.869 20.352-4.46 5.422-7.968 9.269-8.528 10.172-2.263 3.593.876 9.891 7.158 14.05 6.279 4.158 13.42 4.442 15.913.502.602-.987 2.922-6.128 5.621-13.625 2.674-7.493 5.58-17.488 6.771-27.529 1.285-10.044.713-19.819-.409-26.795-1.102-7.006-2.435-11.391-2.402-11.405zM362.014 115.809c.007.008-4.034.284-10.099 1.19-6.044.887-14.098 2.394-21.929 4.244-7.846 1.836-15.405 4.022-20.638 5.864-5.306 1.843-8.102 3.261-8.727 3.503-1.261.511-2.851.738-4.688.797-1.82.051-3.924-.038-5.729-.446-1.795-.403-2.833-1.12-2.727-2.038.077-.904 1.295-1.967 3.344-2.792 1.009-.413 6.271-2.231 13.433-3.881 7.159-1.689 16.16-3.269 24.841-4.373 8.69-1.12 17.078-1.783 23.143-2.013 6.092-.244 9.78-.044 9.776-.055zM193.64 108.688c-.006.003 3.771.203 9.429.99 5.656.763 13.174 2.116 20.5 3.804 7.32 1.683 14.386 3.711 19.272 5.453 4.955 1.736 7.57 3.097 8.15 3.325 1.174.486 2.661.675 4.375.705 1.698.015 3.668-.118 5.358-.559 1.677-.438 2.644-1.174 2.551-2.087-.068-.903-1.209-1.94-3.118-2.719-.939-.396-5.86-2.106-12.547-3.615-6.688-1.544-15.094-2.945-23.208-3.881-8.119-.949-15.956-1.447-21.619-1.554-5.704-.124-9.147.142-9.143.138z"/></svg>
