<svg xmlns="http://www.w3.org/2000/svg" width="612" height="612" viewBox="0 0 612 612"><path fill="#B8AE34" d="M349.896 192.769c-69.296-33.06-70.089-86.219-70.089-86.219a75.277 75.277 0 0 1-.629 8.444c.765 12.319-41.005 124.665 1.422 150.762 56.271 34.63 46.072-10.27 39.666 49.651-6.897 64.602 26.288 115.884-50.925 111.48-74-4.226-129.222-58.736-128.338-128.801-3.543 12.106-5.6 25.363-5.6 40.139 0 93.622 77.752 160.268 173.759 155.511 94.568-4.688 148.368-73.592 148.368-153.134-.001-73.786-34.63-113.014-107.634-147.833z"/><path fill="#E7E755" d="M391.364 235.748c-44.166-50.261-94.901-44.318-111.558-129.198-8.972 70.83-113.431 104.962-138.804 191.537-2.489 7.567-3.888 15.253-4.379 22.933l-.249.1c-10.008 113.495 112.962 172.858 207.715 130.946 80.251-35.489 112.789-141.737 47.275-216.318z"/><path fill="#8D8431" d="M240.744 399.653c.438 7.514-5.529 13.961-13.292 14.405-7.762.434-14.411-5.293-14.837-12.806-.427-7.508 5.517-13.961 13.291-14.393 7.775-.444 14.423 5.281 14.838 12.794z"/><path fill="#FFF" d="M233.704 396.792c.178 2.927-2.163 5.439-5.179 5.61-3.022.178-5.624-2.062-5.778-4.99-.177-2.927 2.151-5.433 5.162-5.605 3.039-.17 5.641 2.057 5.795 4.985z"/><path fill="#8D8431" d="M344.07 385.212c.426 7.515-5.534 13.954-13.304 14.406-7.769.433-14.41-5.298-14.843-12.812-.428-7.507 5.527-13.955 13.303-14.389 7.769-.449 14.413 5.281 14.844 12.795z"/><path fill="#FFF" d="M337.025 382.349c.152 2.928-2.158 5.44-5.187 5.613-3.027.179-5.616-2.068-5.771-4.995-.179-2.929 2.15-5.429 5.166-5.6 3.025-.174 5.614 2.056 5.792 4.982z"/></svg>
