0
SECTION
2
HEADER
9
$INSUNITS
70
4
9
$ACADVER
1
AC1014
9
$HANDSEED
5
FFFF
0
ENDSEC
0
SECTION
2
TABLES
0
TABLE
2
VPORT
5
8
100
AcDbSymbolTable
0
ENDTAB
0
TABLE
2
LTYPE
5
5
100
AcDbSymbolTable
0
LTYPE
5
14
100
AcDbSymbolTableRecord
100
AcDbLinetypeTableRecord
2
BYBLOCK
70
0
0
LTYPE
5
15
100
AcDbSymbolTableRecord
100
AcDbLinetypeTableRecord
2
BYLAYER
70
0
0
ENDTAB
0
TABLE
2
LAYER
5
2
100
AcDbSymbolTable
70
2
0
LAYER
5
50
100
AcDbSymbolTableRecord
100
AcDbLayerTableRecord
2
0
70
0
6
CONTINUOUS
0
ENDTAB
0
TABLE
2
STYLE
5
3
100
AcDbSymbolTable
70
1
0
STYLE
5
11
100
AcDbSymbolTableRecord
100
AcDbTextStyleTableRecord
2
STANDARD
70
0
0
ENDTAB
0
TABLE
2
VIEW
5
6
100
AcDbSymbolTable
70
0
0
ENDTAB
0
TABLE
2
UCS
5
7
100
AcDbSymbolTable
70
0
0
ENDTAB
0
TABLE
2
APPID
5
9
100
AcDbSymbolTable
70
2
0
APPID
5
12
100
AcDbSymbolTableRecord
100
AcDbRegAppTableRecord
2
ACAD
70
0
0
ENDTAB
0
TABLE
2
DIMSTYLE
5
A
100
AcDbSymbolTable
70
1
0
ENDTAB
0
TABLE
2
BLOCK_RECORD
5
1
100
AcDbSymbolTable
70
1
0
BLOCK_RECORD
5
1F
100
AcDbSymbolTableRecord
100
AcDbBlockTableRecord
2
*MODEL_SPACE
0
BLOCK_RECORD
5
1B
100
AcDbSymbolTableRecord
100
AcDbBlockTableRecord
2
*PAPER_SPACE
0
ENDTAB
0
ENDSEC
0
SECTION
2
BLOCKS
0
BLOCK
5
20
100
AcDbEntity
100
AcDbBlockBegin
2
*MODEL_SPACE
0
ENDBLK
5
21
100
AcDbEntity
100
AcDbBlockEnd
0
BLOCK
5
1C
100
AcDbEntity
100
AcDbBlockBegin
2
*PAPER_SPACE
0
ENDBLK
5
1D
100
AcDbEntity
100
AcDbBlockEnd
0
ENDSEC
0
SECTION
2
ENTITIES
0
LINE
5
100
100
AcDbEntity
8
0
100
AcDbLine
10
32.589665013904408
20
-59.500000000000014
30
0
11
37.089665013904416
21
-59.500000000000014
31
0
0
LINE
5
101
100
AcDbEntity
8
0
100
AcDbLine
10
32.589665013904408
20
-21.500000000000007
30
0
11
37.089665013904416
21
-21.500000000000007
31
0
0
LINE
5
102
100
AcDbEntity
8
0
100
AcDbLine
10
-57.910334986095592
20
-78.5
30
0
11
-57.910334986095592
21
-74
31
0
0
LINE
5
103
100
AcDbEntity
8
0
100
AcDbLine
10
-57.910334986095592
20
-74
30
0
11
-76.910334986095592
21
-74
31
0
0
LINE
5
104
100
AcDbEntity
8
0
100
AcDbLine
10
32.589665013904408
20
-21.500000000000007
30
0
11
32.589665013904408
21
-2.5000000000000067
31
0
0
LINE
5
105
100
AcDbEntity
8
0
100
AcDbLine
10
32.589665013904408
20
16.499999999999993
30
0
11
32.589665013904408
21
35.5
31
0
0
LINE
5
106
100
AcDbEntity
8
0
100
AcDbLine
10
-38.910334986095584
20
54.5
30
0
11
-38.910334986095584
21
50
31
0
0
LINE
5
107
100
AcDbEntity
8
0
100
AcDbLine
10
-95.910334986095592
20
-21.500000000000007
30
0
11
-91.410334986095592
21
-21.500000000000007
31
0
0
LINE
5
108
100
AcDbEntity
8
0
100
AcDbLine
10
37.089665013904416
20
-40.500000000000007
30
0
11
32.589665013904408
21
-40.500000000000007
31
0
0
LINE
5
109
100
AcDbEntity
8
0
100
AcDbLine
10
18.089665013904419
20
54.5
30
0
11
18.089665013904419
21
50.00000074505806
31
0
0
LINE
5
110
100
AcDbEntity
8
0
100
AcDbLine
10
37.089665013904416
20
-21.500000000000007
30
0
11
32.589665013904408
21
-21.500000000000007
31
0
0
LINE
5
111
100
AcDbEntity
8
0
100
AcDbLine
10
37.089665013904416
20
-2.5000000000000067
30
0
11
32.589665013904408
21
-2.5000000000000067
31
0
0
LINE
5
112
100
AcDbEntity
8
0
100
AcDbLine
10
37.089665013904416
20
54.5
30
0
11
37.089665013904416
21
35.5
31
0
0
LINE
5
113
100
AcDbEntity
8
0
100
AcDbLine
10
18.089665013904419
20
50
30
0
11
18.089665013904419
21
54.5
31
0
0
LINE
5
114
100
AcDbEntity
8
0
100
AcDbLine
10
18.089665013904419
20
54.5
30
0
11
37.089665013904423
21
54.5
31
0
0
LINE
5
115
100
AcDbEntity
8
0
100
AcDbLine
10
-38.910334986095592
20
-78.5
30
0
11
-38.910334986095592
21
-74
31
0
0
LINE
5
116
100
AcDbEntity
8
0
100
AcDbLine
10
-76.910334986095592
20
-78.5
30
0
11
-76.910334986095592
21
-74
31
0
0
LINE
5
117
100
AcDbEntity
8
0
100
AcDbLine
10
-91.410334986095592
20
-78.5
30
0
11
-95.910334986095592
21
-78.5
31
0
0
LINE
5
118
100
AcDbEntity
8
0
100
AcDbLine
10
-19.910334986095592
20
-78.5
30
0
11
-0.91033498609558894
21
-78.5
31
0
0
LINE
5
119
100
AcDbEntity
8
0
100
AcDbLine
10
-19.910334986095584
20
50
30
0
11
-19.910334986095584
21
54.5
31
0
0
LINE
5
120
100
AcDbEntity
8
0
100
AcDbLine
10
18.089665013904412
20
-74
30
0
11
18.089665013904412
21
-78.5
31
0
0
LINE
5
121
100
AcDbEntity
8
0
100
AcDbLine
10
-95.910334986095592
20
-2.5000000000000067
30
0
11
-95.910334986095592
21
16.499999999999993
31
0
0
LINE
5
122
100
AcDbEntity
8
0
100
AcDbLine
10
32.589665013904408
20
-21.500000000000007
30
0
11
32.589665013904408
21
-2.5000000000000067
31
0
0
LINE
5
123
100
AcDbEntity
8
0
100
AcDbLine
10
37.089665013904416
20
16.499999999999993
30
0
11
37.089665013904416
21
-2.5000000000000067
31
0
0
LINE
5
124
100
AcDbEntity
8
0
100
AcDbLine
10
-91.410334986095592
20
16.499999999999993
30
0
11
-91.410334986095592
21
35.5
31
0
0
LINE
5
125
100
AcDbEntity
8
0
100
AcDbLine
10
32.589665013904408
20
-40.500000000000007
30
0
11
37.089665013904416
21
-40.500000000000007
31
0
0
LINE
5
126
100
AcDbEntity
8
0
100
AcDbLine
10
-19.910334986095592
20
-78.5
30
0
11
-19.910334986095592
21
-74
31
0
0
LINE
5
127
100
AcDbEntity
8
0
100
AcDbLine
10
-19.910334986095584
20
54.5
30
0
11
-19.910334986095584
21
50.00000074505806
31
0
0
LINE
5
128
100
AcDbEntity
8
0
100
AcDbLine
10
-95.910334986095592
20
35.5
30
0
11
-95.910334986095592
21
54.5
31
0
0
LINE
5
129
100
AcDbEntity
8
0
100
AcDbLine
10
32.589665013904408
20
16.499999999999993
30
0
11
37.089665013904416
21
16.499999999999993
31
0
0
LINE
5
130
100
AcDbEntity
8
0
100
AcDbLine
10
32.589665013904408
20
-59.500000000000014
30
0
11
32.589665013904408
21
-40.500000000000007
31
0
0
LINE
5
131
100
AcDbEntity
8
0
100
AcDbLine
10
37.089665013904416
20
35.5
30
0
11
37.387293301211969
21
35.5
31
0
0
LINE
5
132
100
AcDbEntity
8
0
100
AcDbLine
10
-19.910334986095584
20
50.00000074505806
30
0
11
-38.910334986095584
21
50.00000074505806
31
0
0
LINE
5
133
100
AcDbEntity
8
0
100
AcDbLine
10
37.089665013904416
20
-59.500000000000014
30
0
11
37.089665013904416
21
-78.500000000000014
31
0
0
LINE
5
134
100
AcDbEntity
8
0
100
AcDbLine
10
-76.910334986095592
20
50
30
0
11
-76.910334986095592
21
54.5
31
0
0
LINE
5
135
100
AcDbEntity
8
0
100
AcDbLine
10
37.387293301211969
20
35.5
30
0
11
37.387293301211969
21
54.5
31
0
0
LINE
5
136
100
AcDbEntity
8
0
100
AcDbLine
10
-57.910334986095592
20
-74
30
0
11
-57.910334986095592
21
-78.5
31
0
0
LINE
5
137
100
AcDbEntity
8
0
100
AcDbLine
10
-0.91033498609558894
20
-74
30
0
11
18.089665013904412
21
-74
31
0
0
LINE
5
138
100
AcDbEntity
8
0
100
AcDbLine
10
-95.910334986095592
20
54.5
30
0
11
-91.410334986095592
21
54.5
31
0
0
LINE
5
139
100
AcDbEntity
8
0
100
AcDbLine
10
-38.910334986095584
20
50.00000074505806
30
0
11
-38.910334986095584
21
54.5
31
0
0
LINE
5
140
100
AcDbEntity
8
0
100
AcDbLine
10
-76.910334986095592
20
50
30
0
11
-76.910334986095592
21
54.5
31
0
0
LINE
5
141
100
AcDbEntity
8
0
100
AcDbLine
10
-95.910334986095592
20
35.5
30
0
11
-91.410334986095592
21
35.5
31
0
0
LINE
5
142
100
AcDbEntity
8
0
100
AcDbLine
10
-91.410334986095592
20
-59.500000000000014
30
0
11
-95.910334986095592
21
-59.500000000000014
31
0
0
LINE
5
143
100
AcDbEntity
8
0
100
AcDbLine
10
-91.410334986095592
20
16.499999999999993
30
0
11
-95.910334986095592
21
16.499999999999993
31
0
0
LINE
5
144
100
AcDbEntity
8
0
100
AcDbLine
10
-76.910334986095592
20
-74
30
0
11
-76.910334986095592
21
-78.5
31
0
0
LINE
5
145
100
AcDbEntity
8
0
100
AcDbLine
10
-95.910334986095592
20
16.499999999999993
30
0
11
-91.410334986095592
21
16.499999999999993
31
0
0
LINE
5
146
100
AcDbEntity
8
0
100
AcDbLine
10
-91.410334986095592
20
-2.5000000000000067
30
0
11
-95.910334986095592
21
-2.5000000000000067
31
0
0
LINE
5
147
100
AcDbEntity
8
0
100
AcDbLine
10
-91.410334986095592
20
-40.500000000000007
30
0
11
-95.910334986095592
21
-40.500000000000007
31
0
0
LINE
5
148
100
AcDbEntity
8
0
100
AcDbLine
10
-95.910334986095592
20
-40.500000000000007
30
0
11
-95.910334986095592
21
-21.500000000000007
31
0
0
LINE
5
149
100
AcDbEntity
8
0
100
AcDbLine
10
-95.910334986095592
20
-2.5000000000000067
30
0
11
-91.410334986095592
21
-2.5000000000000067
31
0
0
LINE
5
150
100
AcDbEntity
8
0
100
AcDbLine
10
-91.410334986095592
20
-40.500000000000007
30
0
11
-91.410334986095592
21
-59.500000000000014
31
0
0
LINE
5
151
100
AcDbEntity
8
0
100
AcDbLine
10
-91.410334986095592
20
35.5
30
0
11
-95.910334986095592
21
35.5
31
0
0
LINE
5
152
100
AcDbEntity
8
0
100
AcDbLine
10
-91.410334986095592
20
-78.5
30
0
11
-76.910334986095592
21
-78.5
31
0
0
LINE
5
153
100
AcDbEntity
8
0
100
AcDbLine
10
-95.910334986095592
20
-78.5
30
0
11
-95.910334986095606
21
-74
31
0
0
LINE
5
154
100
AcDbEntity
8
0
100
AcDbLine
10
-91.410334986095592
20
-2.5000000000000067
30
0
11
-91.410334986095592
21
-21.500000000000007
31
0
0
LINE
5
155
100
AcDbEntity
8
0
100
AcDbLine
10
-57.910334986095584
20
50
30
0
11
-76.910334986095592
21
50
31
0
0
LINE
5
156
100
AcDbEntity
8
0
100
AcDbLine
10
-0.91033498609558228
20
54.5
30
0
11
-0.91033498609558228
21
50
31
0
0
LINE
5
157
100
AcDbEntity
8
0
100
AcDbLine
10
-19.910334986095592
20
-74
30
0
11
-38.910334986095592
21
-74
31
0
0
LINE
5
158
100
AcDbEntity
8
0
100
AcDbLine
10
-95.910334986095592
20
54.5
30
0
11
-95.910334986095592
21
50
31
0
0
LINE
5
159
100
AcDbEntity
8
0
100
AcDbLine
10
-95.910334986095592
20
54.5
30
0
11
-91.410334986095592
21
54.5
31
0
0
LINE
5
160
100
AcDbEntity
8
0
100
AcDbLine
10
-57.910334986095584
20
50
30
0
11
-57.910334986095584
21
54.5
31
0
0
LINE
5
161
100
AcDbEntity
8
0
100
AcDbLine
10
37.089665013904416
20
-78.500000000000014
30
0
11
18.089665013904412
21
-78.500000000000014
31
0
0
LINE
5
162
100
AcDbEntity
8
0
100
AcDbLine
10
37.387293301211969
20
54.5
30
0
11
37.089665013904416
21
54.5
31
0
0
LINE
5
163
100
AcDbEntity
8
0
100
AcDbLine
10
-19.910334986095592
20
-74
30
0
11
-19.910334986095592
21
-78.5
31
0
0
LINE
5
164
100
AcDbEntity
8
0
100
AcDbLine
10
-91.410334986095592
20
35.5
30
0
11
-91.410334986095592
21
16.499999999999993
31
0
0
LINE
5
165
100
AcDbEntity
8
0
100
AcDbLine
10
37.089665013904416
20
16.499999999999993
30
0
11
32.589665013904408
21
16.499999999999993
31
0
0
LINE
5
166
100
AcDbEntity
8
0
100
AcDbLine
10
37.089665013904416
20
-21.500000000000007
30
0
11
37.089665013904416
21
-40.500000000000007
31
0
0
LINE
5
167
100
AcDbEntity
8
0
100
AcDbLine
10
-57.910334986095592
20
-78.5
30
0
11
-38.910334986095592
21
-78.5
31
0
0
LINE
5
168
100
AcDbEntity
8
0
100
AcDbLine
10
37.089665013904416
20
-78.500000000000014
30
0
11
32.589665013904408
21
-78.500000000000014
31
0
0
LINE
5
169
100
AcDbEntity
8
0
100
AcDbLine
10
37.089665013904416
20
-59.500000000000014
30
0
11
32.589665013904408
21
-59.500000000000014
31
0
0
LINE
5
170
100
AcDbEntity
8
0
100
AcDbLine
10
18.089665013904412
20
-78.500000000000014
30
0
11
18.089665013904412
21
-74
31
0
0
LINE
5
171
100
AcDbEntity
8
0
100
AcDbLine
10
-0.91033498609558894
20
-78.5
30
0
11
-0.91033498609558894
21
-74
31
0
0
LINE
5
172
100
AcDbEntity
8
0
100
AcDbLine
10
-38.910334986095592
20
-74
30
0
11
-38.910334986095592
21
-78.5
31
0
0
LINE
5
173
100
AcDbEntity
8
0
100
AcDbLine
10
-91.410334986095592
20
-21.500000000000007
30
0
11
-95.910334986095592
21
-21.500000000000007
31
0
0
LINE
5
174
100
AcDbEntity
8
0
100
AcDbLine
10
-95.910334986095592
20
-40.500000000000007
30
0
11
-91.410334986095592
21
-40.500000000000007
31
0
0
LINE
5
175
100
AcDbEntity
8
0
100
AcDbLine
10
-95.910334986095592
20
-59.500000000000014
30
0
11
-91.410334986095592
21
-59.500000000000014
31
0
0
LINE
5
176
100
AcDbEntity
8
0
100
AcDbLine
10
-95.910334986095606
20
-74
30
0
11
-95.910334986095606
21
-78.5
31
0
0
LINE
5
177
100
AcDbEntity
8
0
100
AcDbLine
10
41.88729330121199
20
-21.500000000000007
30
0
11
32.589665013904408
21
-21.500000000000007
31
0
0
LINE
5
178
100
AcDbEntity
8
0
100
AcDbLine
10
-19.910334986095584
20
54.5
30
0
11
-0.91033498609558228
21
54.5
31
0
0
LINE
5
179
100
AcDbEntity
8
0
100
AcDbLine
10
37.089665013904416
20
-74
30
0
11
37.089665013904416
21
-78.500000000000014
31
0
0
LINE
5
180
100
AcDbEntity
8
0
100
AcDbLine
10
-0.91033498609558894
20
-78.5
30
0
11
-0.91033498609558894
21
-74
31
0
0
LINE
5
181
100
AcDbEntity
8
0
100
AcDbLine
10
32.589665013904408
20
35.5
30
0
11
37.089665013904416
21
35.5
31
0
0
LINE
5
182
100
AcDbEntity
8
0
100
AcDbLine
10
37.089665013904423
20
54.5
30
0
11
37.089665013904423
21
50
31
0
0
LINE
5
183
100
AcDbEntity
8
0
100
AcDbLine
10
18.089665013904419
20
50.00000074505806
30
0
11
-0.91033498609558228
21
50.00000074505806
31
0
0
LINE
5
184
100
AcDbEntity
8
0
100
AcDbLine
10
-57.910334986095584
20
54.5
30
0
11
-57.910334986095584
21
50
31
0
0
LINE
5
185
100
AcDbEntity
8
0
100
AcDbLine
10
-0.91033498609558228
20
50.00000074505806
30
0
11
-0.91033498609558228
21
54.5
31
0
0
LINE
5
186
100
AcDbEntity
8
0
100
AcDbLine
10
32.589665013904408
20
-2.5000000000000067
30
0
11
37.089665013904416
21
-2.5000000000000067
31
0
0
LINE
5
187
100
AcDbEntity
8
0
100
AcDbLine
10
-76.910334986095592
20
54.5
30
0
11
-95.910334986095592
21
54.5
31
0
0
LINE
5
188
100
AcDbEntity
8
0
100
AcDbLine
10
-57.910334986095584
20
54.5
30
0
11
-38.910334986095584
21
54.5
31
0
0
LINE
5
189
100
AcDbEntity
8
0
100
AcDbLine
10
-95.910334986095592
20
50
30
0
11
-95.910334986095592
21
54.5
31
0
0
LINE
5
190
100
AcDbEntity
8
0
100
AcDbLine
10
-190.61033498609555
20
-77.723999970197681
30
0
11
-190.61033498609558
21
-73.913473654408207
31
0
0
LINE
5
191
100
AcDbEntity
8
0
100
AcDbLine
10
-285.90997440917249
20
16.586526345591782
30
0
11
-285.90997440917249
21
36.186526345591787
31
0
0
LINE
5
192
100
AcDbEntity
8
0
100
AcDbLine
10
-281.40997440917249
20
-77.723999970197681
30
0
11
-266.90997440917255
21
-77.723999970197681
31
0
0
LINE
5
193
100
AcDbEntity
8
0
100
AcDbLine
10
-157.40997440917249
20
-1.8134736544082135
30
0
11
-157.40997440917249
21
16.586526345591789
31
0
0
LINE
5
194
100
AcDbEntity
8
0
100
AcDbLine
10
-266.60997440917248
20
50.086526345591793
30
0
11
-266.60997440917248
21
54.586526345591793
31
0
0
LINE
5
195
100
AcDbEntity
8
0
100
AcDbLine
10
-152.91033498609556
20
-21.413473654408218
30
0
11
-157.41033498609556
21
-21.413473654408218
31
0
0
LINE
5
196
100
AcDbEntity
8
0
100
AcDbLine
10
-209.91033498609565
20
50.086526345591778
30
0
11
-209.91033498609565
21
54.586526345591793
31
0
0
LINE
5
197
100
AcDbEntity
8
0
100
AcDbLine
10
-157.40997440917249
20
-2.5000000000000067
30
0
11
-152.91033498609556
21
-2.5000000000000067
31
0
0
LINE
5
198
100
AcDbEntity
8
0
100
AcDbLine
10
-152.90997440917249
20
16.586526345591789
30
0
11
-157.40997440917249
21
16.586526345591789
31
0
0
LINE
5
199
100
AcDbEntity
8
0
100
AcDbLine
10
-281.40997440917249
20
16.586526345591782
30
0
11
-285.90997440917249
21
16.586526345591782
31
0
0
LINE
5
200
100
AcDbEntity
8
0
100
AcDbLine
10
-248.51033498609564
20
50.086526345591793
30
0
11
-248.51033498609564
21
54.586526345591793
31
0
0
LINE
5
201
100
AcDbEntity
8
0
100
AcDbLine
10
-281.40997440917249
20
16.586526345591782
30
0
11
-281.40997440917249
21
-2.413473654408218
31
0
0
LINE
5
202
100
AcDbEntity
8
0
100
AcDbLine
10
-285.91033498609556
20
-59.413473654408229
30
0
11
-285.91033498609556
21
-39.813473654408227
31
0
0
LINE
5
203
100
AcDbEntity
8
0
100
AcDbLine
10
-281.40997440917249
20
54.586526345591793
30
0
11
-281.40997440917249
21
50.086526345591793
31
0
0
LINE
5
204
100
AcDbEntity
8
0
100
AcDbLine
10
-157.40997440917252
20
-60.013473654408216
30
0
11
-152.91033498609556
21
-60.013473654408216
31
0
0
LINE
5
205
100
AcDbEntity
8
0
100
AcDbLine
10
-152.91033498609556
20
-2.5000000000000067
30
0
11
-152.91033498609556
21
-21.413473654408218
31
0
0
LINE
5
206
100
AcDbEntity
8
0
100
AcDbLine
10
-157.40997440917249
20
-40.413473654408214
30
0
11
-157.40997440917249
21
-21.413473654408214
31
0
0
LINE
5
207
100
AcDbEntity
8
0
100
AcDbLine
10
-152.91033498609556
20
-40.413473654408214
30
0
11
-157.40997440917249
21
-40.413473654408214
31
0
0
LINE
5
208
100
AcDbEntity
8
0
100
AcDbLine
10
-266.90997440917255
20
-77.723999970197681
30
0
11
-266.90997440917255
21
-73.223999970197681
31
0
0
LINE
5
209
100
AcDbEntity
8
0
100
AcDbLine
10
-157.40997440917249
20
-40.413473654408214
30
0
11
-152.90997440917243
21
-40.413473654408214
31
0
0
LINE
5
210
100
AcDbEntity
8
0
100
AcDbLine
10
-152.90997440917243
20
-40.413473654408214
30
0
11
-152.90997440917243
21
-60.013473654408216
31
0
0
LINE
5
211
100
AcDbEntity
8
0
100
AcDbLine
10
-210.21033498609563
20
-78.5
30
0
11
-210.21033498609552
21
-73.913473654408207
31
0
0
LINE
5
212
100
AcDbEntity
8
0
100
AcDbLine
10
-248.51033498609564
20
50.086526345591793
30
0
11
-266.60997440917248
21
50.086526345591793
31
0
0
LINE
5
213
100
AcDbEntity
8
0
100
AcDbLine
10
-152.90997440917252
20
36.186526345591794
30
0
11
-152.90997440917249
21
16.586526345591789
31
0
0
LINE
5
214
100
AcDbEntity
8
0
100
AcDbLine
10
-190.31033498609563
20
54.586526345591793
30
0
11
-190.31033498609563
21
50.086526345591793
31
0
0
LINE
5
215
100
AcDbEntity
8
0
100
AcDbLine
10
-171.91033498609568
20
54.586526345591793
30
0
11
-157.40997440917252
21
54.586526345591793
31
0
0
LINE
5
216
100
AcDbEntity
8
0
100
AcDbLine
10
-152.90997440917243
20
-60.013473654408216
30
0
11
-157.40997440917252
21
-60.013473654408216
31
0
0
LINE
5
217
100
AcDbEntity
8
0
100
AcDbLine
10
-210.21033498609563
20
-78.413473654408222
30
0
11
-190.61033498609558
21
-78.413473654408222
31
0
0
LINE
5
218
100
AcDbEntity
8
0
100
AcDbLine
10
-152.61270669878803
20
55.276000029802326
30
0
11
-152.91033498609556
21
55.276000029802326
31
0
0
LINE
5
219
100
AcDbEntity
8
0
100
AcDbLine
10
-285.90997440917249
20
36.186526345591787
30
0
11
-281.40997440917249
21
36.186526345591787
31
0
0
LINE
5
220
100
AcDbEntity
8
0
100
AcDbLine
10
-266.60997440917248
20
54.586526345591793
30
0
11
-281.40997440917249
21
54.586526345591793
31
0
0
LINE
5
221
100
AcDbEntity
8
0
100
AcDbLine
10
-157.40997440917252
20
54.586526345591793
30
0
11
-157.40997440917252
21
50.086526345591793
31
0
0
LINE
5
222
100
AcDbEntity
8
0
100
AcDbLine
10
-148.11270669878803
20
-21.413473654408214
30
0
11
-157.40997440917249
21
-21.413473654408214
31
0
0
LINE
5
223
100
AcDbEntity
8
0
100
AcDbLine
10
-247.91033498609556
20
-73.223999970197681
30
0
11
-247.91033498609556
21
-78.413473654408222
31
0
0
LINE
5
224
100
AcDbEntity
8
0
100
AcDbLine
10
-281.40997440917249
20
54.586526345591793
30
0
11
-281.40997440917249
21
36.186526345591787
31
0
0
LINE
5
225
100
AcDbEntity
8
0
100
AcDbLine
10
-285.91033498609556
20
-59.413473654408229
30
0
11
-281.40997440917249
21
-59.413473654408229
31
0
0
LINE
5
226
100
AcDbEntity
8
0
100
AcDbLine
10
-266.60997440917248
20
50.086526345591793
30
0
11
-266.60997440917248
21
54.586526345591793
31
0
0
LINE
5
227
100
AcDbEntity
8
0
100
AcDbLine
10
-266.90997440917255
20
-73.223999970197681
30
0
11
-266.90997440917261
21
-78.5
31
0
0
LINE
5
228
100
AcDbEntity
8
0
100
AcDbLine
10
-228.31033498609557
20
-78.413473654408222
30
0
11
-228.31033498609557
21
-73.913473654408207
31
0
0
LINE
5
229
100
AcDbEntity
8
0
100
AcDbLine
10
-281.41033498609556
20
-59.413473654408229
30
0
11
-285.91033498609556
21
-59.413473654408229
31
0
0
LINE
5
230
100
AcDbEntity
8
0
100
AcDbLine
10
-228.91033498609562
20
54.586526345591793
30
0
11
-228.91033498609562
21
50.086526345591793
31
0
0
LINE
5
231
100
AcDbEntity
8
0
100
AcDbLine
10
-171.91033498609568
20
54.586526345591793
30
0
11
-171.91033498609568
21
50.086526345591793
31
0
0
LINE
5
232
100
AcDbEntity
8
0
100
AcDbLine
10
-228.31033498609557
20
-73.913473654408207
30
0
11
-228.31033498609557
21
-78.5
31
0
0
LINE
5
233
100
AcDbEntity
8
0
100
AcDbLine
10
-247.91033498609556
20
-78.413473654408222
30
0
11
-228.31033498609557
21
-78.413473654408222
31
0
0
LINE
5
234
100
AcDbEntity
8
0
100
AcDbLine
10
-285.91033498609556
20
-22.013473654408216
30
0
11
-285.91033498609556
21
-2.413473654408218
31
0
0
LINE
5
235
100
AcDbEntity
8
0
100
AcDbLine
10
-281.40997440917249
20
-59.413473654408229
30
0
11
-281.40997440917249
21
-77.723999970197681
31
0
0
LINE
5
236
100
AcDbEntity
8
0
100
AcDbLine
10
-285.90997440917249
20
16.586526345591782
30
0
11
-281.40997440917249
21
16.586526345591782
31
0
0
LINE
5
237
100
AcDbEntity
8
0
100
AcDbLine
10
-209.91033498609565
20
54.586526345591793
30
0
11
-190.31033498609563
21
54.586526345591793
31
0
0
LINE
5
238
100
AcDbEntity
8
0
100
AcDbLine
10
-281.40997440917249
20
36.186526345591787
30
0
11
-285.91033498609556
21
36.186526345591787
31
0
0
LINE
5
239
100
AcDbEntity
8
0
100
AcDbLine
10
-171.90997440917249
20
-78.413473654408222
30
0
11
-171.90997440917249
21
-73.913473654408207
31
0
0
LINE
5
240
100
AcDbEntity
8
0
100
AcDbLine
10
-281.40997440917249
20
-22.013473654408216
30
0
11
-281.40997440917249
21
-39.813473654408227
31
0
0
LINE
5
241
100
AcDbEntity
8
0
100
AcDbLine
10
-171.91033498609568
20
50.086526345591793
30
0
11
-171.91033498609568
21
54.586526345591793
31
0
0
LINE
5
242
100
AcDbEntity
8
0
100
AcDbLine
10
-281.40997440917249
20
-2.413473654408218
30
0
11
-285.91033498609556
21
-2.413473654408218
31
0
0
LINE
5
243
100
AcDbEntity
8
0
100
AcDbLine
10
-228.91033498609562
20
50.086526345591793
30
0
11
-228.91033498609562
21
54.586526345591793
31
0
0
LINE
5
244
100
AcDbEntity
8
0
100
AcDbLine
10
-157.40997440917252
20
-78.413473654408222
30
0
11
-157.40997440917252
21
-60.013473654408216
31
0
0
LINE
5
245
100
AcDbEntity
8
0
100
AcDbLine
10
-248.51033498609564
20
54.586526345591793
30
0
11
-248.51033498609564
21
50.086526345591793
31
0
0
LINE
5
246
100
AcDbEntity
8
0
100
AcDbLine
10
-171.91033498609568
20
50.086526345591793
30
0
11
-190.31033498609563
21
50.086526345591778
31
0
0
LINE
5
247
100
AcDbEntity
8
0
100
AcDbLine
10
-190.61033498609558
20
-73.913473654408207
30
0
11
-171.90997440917249
21
-73.913473654408207
31
0
0
LINE
5
248
100
AcDbEntity
8
0
100
AcDbLine
10
-281.40997440917249
20
-22.013473654408216
30
0
11
-285.91033498609556
21
-22.013473654408216
31
0
0
LINE
5
249
100
AcDbEntity
8
0
100
AcDbLine
10
-285.91033498609556
20
-39.813473654408227
30
0
11
-281.41033498609556
21
-39.813473654408227
31
0
0
LINE
5
250
100
AcDbEntity
8
0
100
AcDbLine
10
-281.40997440917249
20
-39.813473654408227
30
0
11
-285.91033498609556
21
-39.813473654408227
31
0
0
LINE
5
251
100
AcDbEntity
8
0
100
AcDbLine
10
-171.90997440917249
20
-73.913473654408207
30
0
11
-171.90997440917246
21
-77.723999970197681
31
0
0
LINE
5
252
100
AcDbEntity
8
0
100
AcDbLine
10
-190.31033498609563
20
50.086526345591778
30
0
11
-190.31033498609563
21
54.586526345591793
31
0
0
LINE
5
253
100
AcDbEntity
8
0
100
AcDbLine
10
-152.91033498609556
20
-1.8134736544082108
30
0
11
-157.40997440917249
21
-1.8134736544082135
31
0
0
LINE
5
254
100
AcDbEntity
8
0
100
AcDbLine
10
-247.91033498609556
20
-78.5
30
0
11
-247.91033498609556
21
-73.223999970197681
31
0
0
LINE
5
255
100
AcDbEntity
8
0
100
AcDbLine
10
-157.40997440917252
20
36.186526345591794
30
0
11
-152.90997440917252
21
36.186526345591794
31
0
0
LINE
5
256
100
AcDbEntity
8
0
100
AcDbLine
10
-157.40997440917249
20
16.586526345591789
30
0
11
-152.91033498609556
21
16.586526345591789
31
0
0
LINE
5
257
100
AcDbEntity
8
0
100
AcDbLine
10
-209.91033498609565
20
54.586526345591793
30
0
11
-209.91033498609565
21
50.086526345591793
31
0
0
LINE
5
258
100
AcDbEntity
8
0
100
AcDbLine
10
-209.91033498609565
20
50.086526345591793
30
0
11
-228.91033498609562
21
50.086526345591793
31
0
0
LINE
5
259
100
AcDbEntity
8
0
100
AcDbLine
10
-157.40997440917249
20
-21.413473654408214
30
0
11
-152.91033498609556
21
-21.413473654408218
31
0
0
LINE
5
260
100
AcDbEntity
8
0
100
AcDbLine
10
-152.90997440917252
20
36.186526345591794
30
0
11
-152.61270669878803
21
36.186526345591794
31
0
0
LINE
5
261
100
AcDbEntity
8
0
100
AcDbLine
10
-210.21033498609552
20
-73.913473654408207
30
0
11
-210.21033498609563
21
-78.413473654408222
31
0
0
LINE
5
262
100
AcDbEntity
8
0
100
AcDbLine
10
-210.21033498609552
20
-73.913473654408207
30
0
11
-228.31033498609557
21
-73.913473654408207
31
0
0
LINE
5
263
100
AcDbEntity
8
0
100
AcDbLine
10
-157.40997440917252
20
-78.413473654408222
30
0
11
-171.90997440917249
21
-78.413473654408222
31
0
0
LINE
5
264
100
AcDbEntity
8
0
100
AcDbLine
10
-285.91033498609556
20
-22.013473654408216
30
0
11
-281.40997440917249
21
-22.013473654408216
31
0
0
LINE
5
265
100
AcDbEntity
8
0
100
AcDbLine
10
-248.51033498609564
20
54.586526345591793
30
0
11
-228.91033498609562
21
54.586526345591793
31
0
0
LINE
5
266
100
AcDbEntity
8
0
100
AcDbLine
10
-285.91033498609556
20
-2.413473654408218
30
0
11
-281.40997440917249
21
-2.413473654408218
31
0
0
LINE
5
267
100
AcDbEntity
8
0
100
AcDbLine
10
-157.40997440917249
20
-2.5000000000000067
30
0
11
-157.40997440917249
21
16.586526345591789
31
0
0
LINE
5
268
100
AcDbEntity
8
0
100
AcDbLine
10
-190.61033498609558
20
-78.413473654408222
30
0
11
-190.61033498609558
21
-73.913473654408207
31
0
0
LINE
5
269
100
AcDbEntity
8
0
100
AcDbLine
10
-171.91033498609568
20
50.086526345591793
30
0
11
-171.91033498609568
21
54.586526345591793
31
0
0
LINE
5
270
100
AcDbEntity
8
0
100
AcDbLine
10
-247.91033498609556
20
-73.223999970197681
30
0
11
-266.90997440917255
21
-73.223999970197681
31
0
0
LINE
5
271
100
AcDbEntity
8
0
100
AcDbLine
10
-39.810334986095583
20
-244
30
0
11
-58.210334986095589
21
-244
31
0
0
LINE
5
272
100
AcDbEntity
8
0
100
AcDbLine
10
-19.610334986095584
20
-115.5
30
0
11
-19.610334986095584
21
-120.00000000000001
31
0
0
LINE
5
273
100
AcDbEntity
8
0
100
AcDbLine
10
-20.210334986095582
20
-244
30
0
11
-20.210334986095582
21
-248.5
31
0
0
LINE
5
274
100
AcDbEntity
8
0
100
AcDbLine
10
31.989665013904414
20
-172.5
30
0
11
36.489665013904414
21
-172.5
31
0
0
LINE
5
275
100
AcDbEntity
8
0
100
AcDbLine
10
31.989665013904414
20
-210.34999999999999
30
0
11
31.989665013904414
21
-191.50000000000003
31
0
0
LINE
5
276
100
AcDbEntity
8
0
100
AcDbLine
10
-0.61033498609558201
20
-115.5
30
0
11
18.989665013904421
21
-115.5
31
0
0
LINE
5
277
100
AcDbEntity
8
0
100
AcDbLine
10
36.489665013904414
20
-191.50000000000003
30
0
11
31.989665013904414
21
-191.50000000000003
31
0
0
LINE
5
278
100
AcDbEntity
8
0
100
AcDbLine
10
-77.510334986095586
20
-115.5
30
0
11
-57.910334986095584
21
-115.5
31
0
0
LINE
5
279
100
AcDbEntity
8
0
100
AcDbLine
10
18.989665013904421
20
-120.00000000000001
30
0
11
18.989665013904421
21
-115.5
31
0
0
LINE
5
280
100
AcDbEntity
8
0
100
AcDbLine
10
-20.210334986095582
20
-248.5
30
0
11
-20.210334986095582
21
-244
31
0
0
LINE
5
281
100
AcDbEntity
8
0
100
AcDbLine
10
-1.2103349860955825
20
-244
30
0
11
-20.210334986095582
21
-244
31
0
0
LINE
5
282
100
AcDbEntity
8
0
100
AcDbLine
10
-39.210334986095589
20
-115.5
30
0
11
-39.210334986095589
21
-119.99999999999994
31
0
0
LINE
5
283
100
AcDbEntity
8
0
100
AcDbLine
10
36.789665013904418
20
-210.34999999999999
30
0
11
36.789665013904418
21
-229.34999999999999
31
0
0
LINE
5
284
100
AcDbEntity
8
0
100
AcDbLine
10
18.989665013904421
20
-115.5
30
0
11
18.989665013904421
21
-120.00000000000001
31
0
0
LINE
5
285
100
AcDbEntity
8
0
100
AcDbLine
10
36.789665013904418
20
-134.5
30
0
11
37.387293301211969
21
-134.5
31
0
0
LINE
5
286
100
AcDbEntity
8
0
100
AcDbLine
10
-1.2103349860955825
20
-248.5
30
0
11
-1.2103349860955825
21
-244
31
0
0
LINE
5
287
100
AcDbEntity
8
0
100
AcDbLine
10
37.387293301211969
20
-115.5
30
0
11
37.089665013904416
21
-115.5
31
0
0
LINE
5
288
100
AcDbEntity
8
0
100
AcDbLine
10
-1.2103349860955825
20
-248.49999999999997
30
0
11
-1.2103349860955825
21
-244
31
0
0
LINE
5
289
100
AcDbEntity
8
0
100
AcDbLine
10
-39.810334986095583
20
-244
30
0
11
-39.810334986095583
21
-248.5
31
0
0
LINE
5
290
100
AcDbEntity
8
0
100
AcDbLine
10
37.089665013904416
20
-172.50000000000003
30
0
11
31.989665013904414
21
-172.50000000000003
31
0
0
LINE
5
291
100
AcDbEntity
8
0
100
AcDbLine
10
31.989665013904414
20
-153.5
30
0
11
37.089665013904416
21
-153.5
31
0
0
LINE
5
292
100
AcDbEntity
8
0
100
AcDbLine
10
31.989665013904414
20
-191.50000000000003
30
0
11
36.489665013904414
21
-191.50000000000003
31
0
0
LINE
5
293
100
AcDbEntity
8
0
100
AcDbLine
10
-57.910334986095584
20
-120
30
0
11
-57.910334986095584
21
-115.5
31
0
0
LINE
5
294
100
AcDbEntity
8
0
100
AcDbLine
10
18.38966501390442
20
-248.5
30
0
11
18.38966501390442
21
-244
31
0
0
LINE
5
295
100
AcDbEntity
8
0
100
AcDbLine
10
31.989665013904414
20
-210.34999999999999
30
0
11
36.789665013904418
21
-210.34999999999999
31
0
0
LINE
5
296
100
AcDbEntity
8
0
100
AcDbLine
10
-19.610334986095584
20
-120.00000000000001
30
0
11
-19.610334986095584
21
-115.5
31
0
0
LINE
5
297
100
AcDbEntity
8
0
100
AcDbLine
10
36.789665013904418
20
-134.5
30
0
11
36.789665013904418
21
-153.5
31
0
0
LINE
5
298
100
AcDbEntity
8
0
100
AcDbLine
10
36.489665013904414
20
-191.50000000000003
30
0
11
31.989665013904414
21
-191.50000000000003
31
0
0
LINE
5
299
100
AcDbEntity
8
0
100
AcDbLine
10
-57.910334986095584
20
-115.5
30
0
11
-57.910334986095584
21
-120
31
0
0
LINE
5
300
100
AcDbEntity
8
0
100
AcDbLine
10
-0.61033498609558201
20
-115.5
30
0
11
-0.61033498609558201
21
-120.00000000000001
31
0
0
LINE
5
301
100
AcDbEntity
8
0
100
AcDbLine
10
36.789665013904418
20
-153.5
30
0
11
31.989665013904414
21
-153.5
31
0
0
LINE
5
302
100
AcDbEntity
8
0
100
AcDbLine
10
32.289665013904418
20
-134.5
30
0
11
36.789665013904418
21
-134.5
31
0
0
LINE
5
303
100
AcDbEntity
8
0
100
AcDbLine
10
32.289665013904418
20
-120.00000000000001
30
0
11
18.989665013904421
21
-120.00000000000001
31
0
0
LINE
5
304
100
AcDbEntity
8
0
100
AcDbLine
10
-39.810334986095583
20
-248.5
30
0
11
-20.210334986095582
21
-248.5
31
0
0
LINE
5
305
100
AcDbEntity
8
0
100
AcDbLine
10
-91.710334986095589
20
-172.5
30
0
11
-96.510334986095572
21
-172.5
31
0
0
LINE
5
306
100
AcDbEntity
8
0
100
AcDbLine
10
-96.510334986095572
20
-191.50000000000003
30
0
11
-96.510334986095572
21
-172.5
31
0
0
LINE
5
307
100
AcDbEntity
8
0
100
AcDbLine
10
36.489665013904414
20
-172.5
30
0
11
36.489665013904414
21
-191.50000000000003
31
0
0
LINE
5
308
100
AcDbEntity
8
0
100
AcDbLine
10
-77.510334986095586
20
-120
30
0
11
-77.510334986095586
21
-115.5
31
0
0
LINE
5
309
100
AcDbEntity
8
0
100
AcDbLine
10
-39.810334986095583
20
-248.5
30
0
11
-39.810334986095583
21
-244
31
0
0
LINE
5
310
100
AcDbEntity
8
0
100
AcDbLine
10
-96.510334986095572
20
-172.5
30
0
11
-92.010334986095586
21
-172.5
31
0
0
LINE
5
311
100
AcDbEntity
8
0
100
AcDbLine
10
36.489665013904414
20
-210.34999999999999
30
0
11
31.989665013904414
21
-210.34999999999999
31
0
0
LINE
5
312
100
AcDbEntity
8
0
100
AcDbLine
10
-39.210334986095589
20
-119.99999999999994
30
0
11
-57.910334986095584
21
-120
31
0
0
LINE
5
313
100
AcDbEntity
8
0
100
AcDbLine
10
-92.010334986095586
20
-120
30
0
11
-92.010334986095586
21
-134.5
31
0
0
LINE
5
314
100
AcDbEntity
8
0
100
AcDbLine
10
18.38966501390442
20
-244
30
0
11
36.489665013904414
21
-244
31
0
0
LINE
5
315
100
AcDbEntity
8
0
100
AcDbLine
10
-39.210334986095589
20
-115.5
30
0
11
-19.610334986095584
21
-115.5
31
0
0
LINE
5
316
100
AcDbEntity
8
0
100
AcDbLine
10
-96.210334986095575
20
-153.5
30
0
11
-91.710334986095589
21
-153.5
31
0
0
LINE
5
317
100
AcDbEntity
8
0
100
AcDbLine
10
31.989665013904414
20
-229.35000000000002
30
0
11
36.489665013904414
21
-229.35000000000002
31
0
0
LINE
5
318
100
AcDbEntity
8
0
100
AcDbLine
10
31.989665013904414
20
-244
30
0
11
31.989665013904414
21
-229.35000000000002
31
0
0
LINE
5
319
100
AcDbEntity
8
0
100
AcDbLine
10
18.38966501390442
20
-244
30
0
11
18.38966501390442
21
-248.49999999999997
31
0
0
LINE
5
320
100
AcDbEntity
8
0
100
AcDbLine
10
-96.210334986095575
20
-134.5
30
0
11
-92.010334986095586
21
-134.5
31
0
0
LINE
5
321
100
AcDbEntity
8
0
100
AcDbLine
10
-77.510334986095586
20
-119.99999999999999
30
0
11
-77.510334986095586
21
-115.5
31
0
0
LINE
5
322
100
AcDbEntity
8
0
100
AcDbLine
10
-91.710334986095589
20
-153.5
30
0
11
-96.210334986095575
21
-153.5
31
0
0
LINE
5
323
100
AcDbEntity
8
0
100
AcDbLine
10
-96.210334986095575
20
-153.5
30
0
11
-96.210334986095575
21
-134.5
31
0
0
LINE
5
324
100
AcDbEntity
8
0
100
AcDbLine
10
-96.510334986095572
20
-229.5
30
0
11
-96.510334986095572
21
-210.5
31
0
0
LINE
5
325
100
AcDbEntity
8
0
100
AcDbLine
10
-91.710334986095589
20
-153.5
30
0
11
-91.710334986095589
21
-172.5
31
0
0
LINE
5
326
100
AcDbEntity
8
0
100
AcDbLine
10
36.789665013904418
20
-229.34999999999999
30
0
11
31.989665013904414
21
-229.35000000000002
31
0
0
LINE
5
327
100
AcDbEntity
8
0
100
AcDbLine
10
-92.010334986095586
20
-134.5
30
0
11
-95.910334986095592
21
-134.5
31
0
0
LINE
5
328
100
AcDbEntity
8
0
100
AcDbLine
10
18.38966501390442
20
-248.49999999999997
30
0
11
-1.2103349860955825
21
-248.49999999999997
31
0
0
LINE
5
329
100
AcDbEntity
8
0
100
AcDbLine
10
-92.010334986095586
20
-120
30
0
11
-77.510334986095586
21
-119.99999999999999
31
0
0
LINE
5
330
100
AcDbEntity
8
0
100
AcDbLine
10
-91.710334986095589
20
-191.5
30
0
11
-96.510334986095572
21
-191.50000000000003
31
0
0
LINE
5
331
100
AcDbEntity
8
0
100
AcDbLine
10
-0.61033498609558201
20
-120.00000000000001
30
0
11
-19.610334986095584
21
-120.00000000000001
31
0
0
LINE
5
332
100
AcDbEntity
8
0
100
AcDbLine
10
-91.710334986095589
20
-191.5
30
0
11
-91.710334986095589
21
-210.49999999999997
31
0
0
LINE
5
333
100
AcDbEntity
8
0
100
AcDbLine
10
-77.810334986095583
20
-244
30
0
11
-91.710334986095589
21
-244
31
0
0
LINE
5
334
100
AcDbEntity
8
0
100
AcDbLine
10
-39.210334986095589
20
-120
30
0
11
-39.210334986095589
21
-115.5
31
0
0
LINE
5
335
100
AcDbEntity
8
0
100
AcDbLine
10
-96.510334986095572
20
-210.5
30
0
11
-91.410334986095592
21
-210.5
31
0
0
LINE
5
336
100
AcDbEntity
8
0
100
AcDbLine
10
-96.510334986095572
20
-191.50000000000003
30
0
11
-91.710334986095589
21
-191.5
31
0
0
LINE
5
337
100
AcDbEntity
8
0
100
AcDbLine
10
-58.210334986095589
20
-248.5
30
0
11
-58.210334986095589
21
-244
31
0
0
LINE
5
338
100
AcDbEntity
8
0
100
AcDbLine
10
-91.710334986095589
20
-229.49999999999991
30
0
11
-91.410334986095592
21
-229.5
31
0
0
LINE
5
339
100
AcDbEntity
8
0
100
AcDbLine
10
-77.810334986095583
20
-248.5
30
0
11
-58.210334986095589
21
-248.5
31
0
0
LINE
5
340
100
AcDbEntity
8
0
100
AcDbLine
10
-58.210334986095589
20
-244
30
0
11
-58.210334986095589
21
-248.5
31
0
0
LINE
5
341
100
AcDbEntity
8
0
100
AcDbLine
10
-91.710334986095589
20
-210.49999999999997
30
0
11
-96.510334986095572
21
-210.5
31
0
0
LINE
5
342
100
AcDbEntity
8
0
100
AcDbLine
10
-77.810334986095583
20
-244
30
0
11
-77.810334986095583
21
-248.5
31
0
0
LINE
5
343
100
AcDbEntity
8
0
100
AcDbLine
10
-77.810334986095583
20
-248.5
30
0
11
-77.810334986095583
21
-244
31
0
0
LINE
5
344
100
AcDbEntity
8
0
100
AcDbLine
10
-91.410334986095592
20
-229.5
30
0
11
-96.510334986095572
21
-229.5
31
0
0
LINE
5
345
100
AcDbEntity
8
0
100
AcDbLine
10
-0.61033498609558201
20
-120
30
0
11
-0.61033498609558201
21
-115.5
31
0
0
LINE
5
346
100
AcDbEntity
8
0
100
AcDbLine
10
-91.410334986095592
20
-59.500000000000014
30
0
11
-91.410334986095592
21
-40.500000000000007
31
0
0
LINE
5
347
100
AcDbEntity
8
0
100
AcDbLine
10
-91.410334986095592
20
-21.500000000000007
30
0
11
-91.410334986095592
21
-2.5000000000000067
31
0
0
LINE
5
348
100
AcDbEntity
8
0
100
AcDbLine
10
-76.910334986095592
20
50
30
0
11
-57.910334986095584
21
50
31
0
0
LINE
5
349
100
AcDbEntity
8
0
100
AcDbLine
10
-38.910334986095584
20
50.00000074505806
30
0
11
-19.910334986095584
21
50.00000074505806
31
0
0
LINE
5
350
100
AcDbEntity
8
0
100
AcDbLine
10
-0.91033498609558228
20
50.00000074505806
30
0
11
18.089665013904419
21
50
31
0
0
LINE
5
351
100
AcDbEntity
8
0
100
AcDbLine
10
-95.910334986095606
20
-74
30
0
11
-95.910334986095592
21
-59.500000000000014
31
0
0
LINE
5
352
100
AcDbEntity
8
0
100
AcDbLine
10
-95.910334986095606
20
-78.5
30
0
11
-91.410334986095592
21
-78.5
31
0
0
LINE
5
353
100
AcDbEntity
8
0
100
AcDbLine
10
32.589665013904408
20
50.776000029802326
30
0
11
32.589665013904408
21
50
31
0
0
LINE
5
354
100
AcDbEntity
8
0
100
AcDbLine
10
32.589665013904408
20
35.5
30
0
11
32.589665013904408
21
16.499999999999993
31
0
0
LINE
5
355
100
AcDbEntity
8
0
100
AcDbLine
10
32.589665013904408
20
-2.5000000000000067
30
0
11
32.589665013904408
21
-21.500000000000007
31
0
0
LINE
5
356
100
AcDbEntity
8
0
100
AcDbLine
10
32.589665013904408
20
-40.500000000000007
30
0
11
32.589665013904408
21
-59.500000000000014
31
0
0
LINE
5
357
100
AcDbEntity
8
0
100
AcDbLine
10
18.089665013904412
20
-74
30
0
11
-0.91033498609558894
21
-74
31
0
0
LINE
5
358
100
AcDbEntity
8
0
100
AcDbLine
10
-19.910334986095592
20
-74
30
0
11
-38.910334986095592
21
-74
31
0
0
LINE
5
359
100
AcDbEntity
8
0
100
AcDbLine
10
-57.910334986095592
20
-74
30
0
11
-76.910334986095592
21
-74
31
0
0
LINE
5
360
100
AcDbEntity
8
0
100
AcDbLine
10
-92.010334986095586
20
-120
30
0
11
-77.510334986095586
21
-119.99999999999999
31
0
0
LINE
5
361
100
AcDbEntity
8
0
100
AcDbLine
10
-57.910334986095584
20
-120
30
0
11
-39.210334986095589
21
-120
31
0
0
LINE
5
362
100
AcDbEntity
8
0
100
AcDbLine
10
-19.610334986095584
20
-120.00000000000001
30
0
11
-0.61033498609558201
21
-120.00000000000001
31
0
0
LINE
5
363
100
AcDbEntity
8
0
100
AcDbLine
10
18.989665013904421
20
-120.00000000000001
30
0
11
32.289665013904418
21
-120.00000000000001
31
0
0
LINE
5
364
100
AcDbEntity
8
0
100
AcDbLine
10
-157.40997440917252
20
-60.013473654408216
30
0
11
-157.40997440917252
21
-73.223999970197681
31
0
0
LINE
5
365
100
AcDbEntity
8
0
100
AcDbLine
10
-91.710334986095589
20
-244
30
0
11
-91.710334986095589
21
-229.49999999999991
31
0
0
LINE
5
366
100
AcDbEntity
8
0
100
AcDbLine
10
-96.510334986095572
20
-229.5
30
0
11
-91.710334986095589
21
-229.49999999999991
31
0
0
LINE
5
367
100
AcDbEntity
8
0
100
AcDbLine
10
-91.710334986095589
20
-210.49999999999997
30
0
11
-91.710334986095589
21
-191.5
31
0
0
LINE
5
368
100
AcDbEntity
8
0
100
AcDbLine
10
-91.710334986095589
20
-172.5
30
0
11
-91.710334986095589
21
-153.5
31
0
0
LINE
5
369
100
AcDbEntity
8
0
100
AcDbLine
10
-92.010334986095586
20
-134.5
30
0
11
-92.010334986095586
21
-120
31
0
0
LINE
5
370
100
AcDbEntity
8
0
100
AcDbLine
10
-77.810334986095583
20
-244
30
0
11
-91.710334986095589
21
-244
31
0
0
LINE
5
371
100
AcDbEntity
8
0
100
AcDbLine
10
-39.810334986095583
20
-244
30
0
11
-58.210334986095589
21
-244
31
0
0
LINE
5
372
100
AcDbEntity
8
0
100
AcDbLine
10
-157.40997440917252
20
50.086526345591793
30
0
11
-157.40997440917252
21
36.186526345591794
31
0
0
LINE
5
373
100
AcDbEntity
8
0
100
AcDbLine
10
-157.40997440917249
20
16.586526345591789
30
0
11
-157.40997440917249
21
-2.5000000000000067
31
0
0
LINE
5
374
100
AcDbEntity
8
0
100
AcDbLine
10
-157.40997440917249
20
-21.413473654408214
30
0
11
-157.40997440917249
21
-40.413473654408214
31
0
0
LINE
5
375
100
AcDbEntity
8
0
100
AcDbLine
10
32.289665013904418
20
-120.00000000000001
30
0
11
32.289665013904418
21
-134.5
31
0
0
LINE
5
376
100
AcDbEntity
8
0
100
AcDbLine
10
31.989665013904414
20
-153.5
30
0
11
31.989665013904414
21
-172.50000000000003
31
0
0
LINE
5
377
100
AcDbEntity
8
0
100
AcDbLine
10
31.989665013904414
20
-229.35000000000002
30
0
11
31.989665013904414
21
-244
31
0
0
LINE
5
378
100
AcDbEntity
8
0
100
AcDbLine
10
31.989665013904414
20
-191.50000000000003
30
0
11
31.989665013904414
21
-210.34999999999999
31
0
0
LINE
5
379
100
AcDbEntity
8
0
100
AcDbLine
10
31.989665013904414
20
-244
30
0
11
18.38966501390442
21
-244
31
0
0
LINE
5
380
100
AcDbEntity
8
0
100
AcDbLine
10
-1.2103349860955825
20
-244
30
0
11
-20.210334986095582
21
-244
31
0
0
LINE
5
381
100
AcDbEntity
8
0
100
AcDbLine
10
-171.90997440917249
20
-73.913473654408207
30
0
11
-190.61033498609558
21
-73.913473654408207
31
0
0
LINE
5
382
100
AcDbEntity
8
0
100
AcDbLine
10
-210.21033498609552
20
-73.913473654408207
30
0
11
-228.31033498609557
21
-73.913473654408207
31
0
0
LINE
5
383
100
AcDbEntity
8
0
100
AcDbLine
10
-247.91033498609556
20
-73.223999970197681
30
0
11
-266.90997440917255
21
-73.223999970197681
31
0
0
LINE
5
384
100
AcDbEntity
8
0
100
AcDbLine
10
-281.40997440917249
20
-73.223999970197681
30
0
11
-281.40997440917249
21
-59.413473654408229
31
0
0
LINE
5
385
100
AcDbEntity
8
0
100
AcDbLine
10
-281.40997440917249
20
-39.813473654408227
30
0
11
-281.40997440917249
21
-22.013473654408216
31
0
0
LINE
5
386
100
AcDbEntity
8
0
100
AcDbLine
10
-281.40997440917249
20
-2.413473654408218
30
0
11
-281.40997440917249
21
16.586526345591782
31
0
0
LINE
5
387
100
AcDbEntity
8
0
100
AcDbLine
10
-281.40997440917249
20
36.186526345591787
30
0
11
-281.40997440917249
21
50.086526345591793
31
0
0
LINE
5
388
100
AcDbEntity
8
0
100
AcDbLine
10
114.08966501390441
20
-39.813473654408227
30
0
11
118.58966501390441
21
-39.813473654408227
31
0
0
LINE
5
389
100
AcDbEntity
8
0
100
AcDbLine
10
118.59002559082751
20
36.186526345591787
30
0
11
118.59002559082751
21
50.086526345591793
31
0
0
LINE
5
390
100
AcDbEntity
8
0
100
AcDbLine
10
228.09002559082751
20
-78.413473654408222
30
0
11
228.09002559082751
21
-73.913473654408207
31
0
0
LINE
5
391
100
AcDbEntity
8
0
100
AcDbLine
10
247.09002559082757
20
-40.413473654408214
30
0
11
247.09002559082757
21
-60.013473654408216
31
0
0
LINE
5
392
100
AcDbEntity
8
0
100
AcDbLine
10
247.08966501390444
20
-40.413473654408214
30
0
11
242.59002559082751
21
-40.413473654408214
31
0
0
LINE
5
393
100
AcDbEntity
8
0
100
AcDbLine
10
247.09002559082748
20
36.186526345591794
30
0
11
247.09002559082748
21
16.586526345591789
31
0
0
LINE
5
394
100
AcDbEntity
8
0
100
AcDbLine
10
242.59002559082751
20
-21.413473654408214
30
0
11
242.59002559082751
21
-40.413473654408214
31
0
0
LINE
5
395
100
AcDbEntity
8
0
100
AcDbLine
10
242.59002559082751
20
-40.413473654408214
30
0
11
247.09002559082757
21
-40.413473654408214
31
0
0
LINE
5
396
100
AcDbEntity
8
0
100
AcDbLine
10
209.38966501390442
20
-73.913473654408207
30
0
11
228.09002559082751
21
-73.913473654408207
31
0
0
LINE
5
397
100
AcDbEntity
8
0
100
AcDbLine
10
242.59002559082748
20
-78.413473654408222
30
0
11
228.09002559082751
21
-78.413473654408222
31
0
0
LINE
5
398
100
AcDbEntity
8
0
100
AcDbLine
10
151.48966501390436
20
54.586526345591793
30
0
11
171.08966501390438
21
54.586526345591793
31
0
0
LINE
5
399
100
AcDbEntity
8
0
100
AcDbLine
10
209.38966501390445
20
-77.723999970197681
30
0
11
209.38966501390442
21
-73.913473654408207
31
0
0
LINE
5
400
100
AcDbEntity
8
0
100
AcDbLine
10
247.08966501390444
20
-21.413473654408218
30
0
11
242.58966501390447
21
-21.413473654408218
31
0
0
LINE
5
401
100
AcDbEntity
8
0
100
AcDbLine
10
228.08966501390432
20
54.586526345591793
30
0
11
242.59002559082748
21
54.586526345591793
31
0
0
LINE
5
402
100
AcDbEntity
8
0
100
AcDbLine
10
118.59002559082751
20
36.186526345591787
30
0
11
114.08966501390441
21
36.186526345591787
31
0
0
LINE
5
403
100
AcDbEntity
8
0
100
AcDbLine
10
228.08966501390432
20
50.086526345591793
30
0
11
228.08966501390432
21
54.586526345591793
31
0
0
LINE
5
404
100
AcDbEntity
8
0
100
AcDbLine
10
152.08966501390444
20
-78.5
30
0
11
152.08966501390444
21
-73.223999970197681
31
0
0
LINE
5
405
100
AcDbEntity
8
0
100
AcDbLine
10
118.59002559082751
20
-39.813473654408227
30
0
11
118.59002559082751
21
-22.013473654408216
31
0
0
LINE
5
406
100
AcDbEntity
8
0
100
AcDbLine
10
242.59002559082751
20
16.586526345591789
30
0
11
247.08966501390444
21
16.586526345591789
31
0
0
LINE
5
407
100
AcDbEntity
8
0
100
AcDbLine
10
247.09002559082748
20
16.586526345591789
30
0
11
242.59002559082751
21
16.586526345591789
31
0
0
LINE
5
408
100
AcDbEntity
8
0
100
AcDbLine
10
171.08966501390438
20
50.086526345591793
30
0
11
171.08966501390438
21
54.586526345591793
31
0
0
LINE
5
409
100
AcDbEntity
8
0
100
AcDbLine
10
228.08966501390432
20
54.586526345591793
30
0
11
228.08966501390432
21
50.086526345591793
31
0
0
LINE
5
410
100
AcDbEntity
8
0
100
AcDbLine
10
247.08966501390444
20
-21.413473654408218
30
0
11
242.59002559082751
21
-21.413473654408214
31
0
0
LINE
5
411
100
AcDbEntity
8
0
100
AcDbLine
10
242.59002559082751
20
-2.5000000000000067
30
0
11
247.08966501390444
21
-2.5000000000000067
31
0
0
LINE
5
412
100
AcDbEntity
8
0
100
AcDbLine
10
247.08966501390444
20
-2.5000000000000067
30
0
11
247.08966501390444
21
-21.413473654408218
31
0
0
LINE
5
413
100
AcDbEntity
8
0
100
AcDbLine
10
247.09002559082757
20
-60.013473654408216
30
0
11
242.59002559082748
21
-60.013473654408216
31
0
0
LINE
5
414
100
AcDbEntity
8
0
100
AcDbLine
10
242.59002559082748
20
-60.013473654408216
30
0
11
247.08966501390444
21
-60.013473654408216
31
0
0
LINE
5
415
100
AcDbEntity
8
0
100
AcDbLine
10
228.09002559082751
20
-73.913473654408207
30
0
11
209.38966501390442
21
-73.913473654408207
31
0
0
LINE
5
416
100
AcDbEntity
8
0
100
AcDbLine
10
118.59002559082751
20
-2.413473654408218
30
0
11
114.08966501390441
21
-2.413473654408218
31
0
0
LINE
5
417
100
AcDbEntity
8
0
100
AcDbLine
10
189.78966501390448
20
-73.913473654408207
30
0
11
189.78966501390437
21
-78.413473654408222
31
0
0
LINE
5
418
100
AcDbEntity
8
0
100
AcDbLine
10
114.08966501390441
20
-22.013473654408216
30
0
11
118.59002559082751
21
-22.013473654408216
31
0
0
LINE
5
419
100
AcDbEntity
8
0
100
AcDbLine
10
242.59002559082751
20
-2.5000000000000067
30
0
11
242.59002559082751
21
16.586526345591789
31
0
0
LINE
5
420
100
AcDbEntity
8
0
100
AcDbLine
10
118.59002559082751
20
-2.413473654408218
30
0
11
118.59002559082751
21
16.586526345591782
31
0
0
LINE
5
421
100
AcDbEntity
8
0
100
AcDbLine
10
118.59002559082751
20
16.586526345591782
30
0
11
114.09002559082751
21
16.586526345591782
31
0
0
LINE
5
422
100
AcDbEntity
8
0
100
AcDbLine
10
171.68966501390443
20
-73.913473654408207
30
0
11
171.68966501390443
21
-78.5
31
0
0
LINE
5
423
100
AcDbEntity
8
0
100
AcDbLine
10
242.59002559082751
20
-1.8134736544082135
30
0
11
242.59002559082751
21
16.586526345591789
31
0
0
LINE
5
424
100
AcDbEntity
8
0
100
AcDbLine
10
190.08966501390435
20
50.086526345591778
30
0
11
190.08966501390435
21
54.586526345591793
31
0
0
LINE
5
425
100
AcDbEntity
8
0
100
AcDbLine
10
133.09002559082745
20
-73.223999970197681
30
0
11
133.09002559082742
21
-78.5
31
0
0
LINE
5
426
100
AcDbEntity
8
0
100
AcDbLine
10
114.08966501390441
20
-2.413473654408218
30
0
11
118.59002559082751
21
-2.413473654408218
31
0
0
LINE
5
427
100
AcDbEntity
8
0
100
AcDbLine
10
133.39002559082752
20
50.086526345591793
30
0
11
133.39002559082752
21
54.586526345591793
31
0
0
LINE
5
428
100
AcDbEntity
8
0
100
AcDbLine
10
133.39002559082752
20
50.086526345591793
30
0
11
133.39002559082752
21
54.586526345591793
31
0
0
LINE
5
429
100
AcDbEntity
8
0
100
AcDbLine
10
118.59002559082751
20
-59.413473654408229
30
0
11
118.59002559082751
21
-77.723999970197681
31
0
0
LINE
5
430
100
AcDbEntity
8
0
100
AcDbLine
10
209.68966501390437
20
50.086526345591778
30
0
11
209.68966501390437
21
54.586526345591793
31
0
0
LINE
5
431
100
AcDbEntity
8
0
100
AcDbLine
10
171.68966501390443
20
-78.413473654408222
30
0
11
171.68966501390443
21
-73.913473654408207
31
0
0
LINE
5
432
100
AcDbEntity
8
0
100
AcDbLine
10
118.59002559082751
20
-22.013473654408216
30
0
11
118.59002559082751
21
-39.813473654408227
31
0
0
LINE
5
433
100
AcDbEntity
8
0
100
AcDbLine
10
152.08966501390444
20
-78.413473654408222
30
0
11
171.68966501390443
21
-78.413473654408222
31
0
0
LINE
5
434
100
AcDbEntity
8
0
100
AcDbLine
10
228.09002559082751
20
-73.913473654408207
30
0
11
228.09002559082754
21
-77.723999970197681
31
0
0
LINE
5
435
100
AcDbEntity
8
0
100
AcDbLine
10
189.78966501390437
20
-78.413473654408222
30
0
11
209.38966501390442
21
-78.413473654408222
31
0
0
LINE
5
436
100
AcDbEntity
8
0
100
AcDbLine
10
242.59002559082751
20
16.586526345591789
30
0
11
242.59002559082751
21
-2.5000000000000067
31
0
0
LINE
5
437
100
AcDbEntity
8
0
100
AcDbLine
10
242.59002559082748
20
-78.413473654408222
30
0
11
242.59002559082748
21
-60.013473654408216
31
0
0
LINE
5
438
100
AcDbEntity
8
0
100
AcDbLine
10
242.59002559082751
20
-21.413473654408214
30
0
11
247.08966501390444
21
-21.413473654408218
31
0
0
LINE
5
439
100
AcDbEntity
8
0
100
AcDbLine
10
151.48966501390436
20
50.086526345591793
30
0
11
133.39002559082752
21
50.086526345591793
31
0
0
LINE
5
440
100
AcDbEntity
8
0
100
AcDbLine
10
242.59002559082748
20
54.586526345591793
30
0
11
242.59002559082748
21
50.086526345591793
31
0
0
LINE
5
441
100
AcDbEntity
8
0
100
AcDbLine
10
152.08966501390444
20
-73.223999970197681
30
0
11
133.09002559082745
21
-73.223999970197681
31
0
0
LINE
5
442
100
AcDbEntity
8
0
100
AcDbLine
10
242.59002559082748
20
36.186526345591794
30
0
11
247.09002559082748
21
36.186526345591794
31
0
0
LINE
5
443
100
AcDbEntity
8
0
100
AcDbLine
10
242.59002559082751
20
-40.413473654408214
30
0
11
242.59002559082751
21
-21.413473654408214
31
0
0
LINE
5
444
100
AcDbEntity
8
0
100
AcDbLine
10
189.78966501390437
20
-78.5
30
0
11
189.78966501390448
21
-73.913473654408207
31
0
0
LINE
5
445
100
AcDbEntity
8
0
100
AcDbLine
10
118.59002559082751
20
-22.013473654408216
30
0
11
114.08966501390441
21
-22.013473654408216
31
0
0
LINE
5
446
100
AcDbEntity
8
0
100
AcDbLine
10
152.08966501390444
20
-73.223999970197681
30
0
11
152.08966501390444
21
-78.413473654408222
31
0
0
LINE
5
447
100
AcDbEntity
8
0
100
AcDbLine
10
209.68966501390437
20
54.586526345591793
30
0
11
209.68966501390437
21
50.086526345591793
31
0
0
LINE
5
448
100
AcDbEntity
8
0
100
AcDbLine
10
228.08966501390432
20
50.086526345591793
30
0
11
209.68966501390437
21
50.086526345591778
31
0
0
LINE
5
449
100
AcDbEntity
8
0
100
AcDbLine
10
189.78966501390448
20
-73.913473654408207
30
0
11
171.68966501390443
21
-73.913473654408207
31
0
0
LINE
5
450
100
AcDbEntity
8
0
100
AcDbLine
10
114.08966501390441
20
-59.413473654408229
30
0
11
118.59002559082751
21
-59.413473654408229
31
0
0
LINE
5
451
100
AcDbEntity
8
0
100
AcDbLine
10
190.08966501390435
20
50.086526345591793
30
0
11
171.08966501390438
21
50.086526345591793
31
0
0
LINE
5
452
100
AcDbEntity
8
0
100
AcDbLine
10
189.78966501390448
20
-73.913473654408207
30
0
11
171.68966501390443
21
-73.913473654408207
31
0
0
LINE
5
453
100
AcDbEntity
8
0
100
AcDbLine
10
118.59002559082751
20
54.586526345591793
30
0
11
118.59002559082751
21
36.186526345591787
31
0
0
LINE
5
454
100
AcDbEntity
8
0
100
AcDbLine
10
118.59002559082751
20
-39.813473654408227
30
0
11
114.08966501390441
21
-39.813473654408227
31
0
0
LINE
5
455
100
AcDbEntity
8
0
100
AcDbLine
10
118.59002559082751
20
-73.223999970197681
30
0
11
118.59002559082751
21
-59.413473654408229
31
0
0
LINE
5
456
100
AcDbEntity
8
0
100
AcDbLine
10
114.08966501390441
20
-59.413473654408229
30
0
11
114.08966501390441
21
-39.813473654408227
31
0
0
LINE
5
457
100
AcDbEntity
8
0
100
AcDbLine
10
118.59002559082751
20
-77.723999970197681
30
0
11
133.09002559082745
21
-77.723999970197681
31
0
0
LINE
5
458
100
AcDbEntity
8
0
100
AcDbLine
10
242.59002559082748
20
50.086526345591793
30
0
11
242.59002559082748
21
36.186526345591794
31
0
0
LINE
5
459
100
AcDbEntity
8
0
100
AcDbLine
10
118.59002559082751
20
54.586526345591793
30
0
11
118.59002559082751
21
50.086526345591793
31
0
0
LINE
5
460
100
AcDbEntity
8
0
100
AcDbLine
10
228.08966501390432
20
50.086526345591793
30
0
11
228.08966501390432
21
54.586526345591793
31
0
0
LINE
5
461
100
AcDbEntity
8
0
100
AcDbLine
10
242.59002559082748
20
-60.013473654408216
30
0
11
242.59002559082748
21
-73.223999970197681
31
0
0
LINE
5
462
100
AcDbEntity
8
0
100
AcDbLine
10
209.38966501390442
20
-78.413473654408222
30
0
11
209.38966501390442
21
-73.913473654408207
31
0
0
LINE
5
463
100
AcDbEntity
8
0
100
AcDbLine
10
118.59002559082751
20
16.586526345591782
30
0
11
118.59002559082751
21
-2.413473654408218
31
0
0
LINE
5
464
100
AcDbEntity
8
0
100
AcDbLine
10
190.08966501390435
20
54.586526345591793
30
0
11
190.08966501390435
21
50.086526345591793
31
0
0
LINE
5
465
100
AcDbEntity
8
0
100
AcDbLine
10
151.48966501390436
20
50.086526345591793
30
0
11
151.48966501390436
21
54.586526345591793
31
0
0
LINE
5
466
100
AcDbEntity
8
0
100
AcDbLine
10
114.09002559082751
20
16.586526345591782
30
0
11
114.09002559082751
21
36.186526345591787
31
0
0
LINE
5
467
100
AcDbEntity
8
0
100
AcDbLine
10
247.08966501390444
20
-1.8134736544082108
30
0
11
242.59002559082751
21
-1.8134736544082135
31
0
0
LINE
5
468
100
AcDbEntity
8
0
100
AcDbLine
10
247.38729330121197
20
55.276000029802326
30
0
11
247.08966501390444
21
55.276000029802326
31
0
0
LINE
5
469
100
AcDbEntity
8
0
100
AcDbLine
10
118.58966501390441
20
-59.413473654408229
30
0
11
114.08966501390441
21
-59.413473654408229
31
0
0
LINE
5
470
100
AcDbEntity
8
0
100
AcDbLine
10
190.08966501390435
20
54.586526345591793
30
0
11
209.68966501390437
21
54.586526345591793
31
0
0
LINE
5
471
100
AcDbEntity
8
0
100
AcDbLine
10
171.08966501390438
20
54.586526345591793
30
0
11
171.08966501390438
21
50.086526345591793
31
0
0
LINE
5
472
100
AcDbEntity
8
0
100
AcDbLine
10
114.09002559082751
20
16.586526345591782
30
0
11
118.59002559082751
21
16.586526345591782
31
0
0
LINE
5
473
100
AcDbEntity
8
0
100
AcDbLine
10
114.08966501390441
20
-22.013473654408216
30
0
11
114.08966501390441
21
-2.413473654408218
31
0
0
LINE
5
474
100
AcDbEntity
8
0
100
AcDbLine
10
133.09002559082745
20
-77.723999970197681
30
0
11
133.09002559082745
21
-73.223999970197681
31
0
0
LINE
5
475
100
AcDbEntity
8
0
100
AcDbLine
10
247.09002559082748
20
36.186526345591794
30
0
11
247.38729330121197
21
36.186526345591794
31
0
0
LINE
5
476
100
AcDbEntity
8
0
100
AcDbLine
10
114.09002559082751
20
36.186526345591787
30
0
11
118.59002559082751
21
36.186526345591787
31
0
0
LINE
5
477
100
AcDbEntity
8
0
100
AcDbLine
10
151.48966501390436
20
54.586526345591793
30
0
11
151.48966501390436
21
50.086526345591793
31
0
0
LINE
5
478
100
AcDbEntity
8
0
100
AcDbLine
10
133.39002559082752
20
54.586526345591793
30
0
11
118.59002559082751
21
54.586526345591793
31
0
0
LINE
5
479
100
AcDbEntity
8
0
100
AcDbLine
10
-92.010334986095586
20
230
30
0
11
-92.010334986095586
21
215.5
31
0
0
LINE
5
480
100
AcDbEntity
8
0
100
AcDbLine
10
-39.810334986095583
20
106.00000000000001
30
0
11
-58.210334986095589
21
106.00000000000001
31
0
0
LINE
5
481
100
AcDbEntity
8
0
100
AcDbLine
10
-77.510334986095586
20
230
30
0
11
-77.510334986095586
21
234.5
31
0
0
LINE
5
482
100
AcDbEntity
8
0
100
AcDbLine
10
-96.510334986095572
20
158.49999999999997
30
0
11
-91.710334986095589
21
158.5
31
0
0
LINE
5
483
100
AcDbEntity
8
0
100
AcDbLine
10
18.38966501390442
20
101.49999999999999
30
0
11
18.38966501390442
21
106.00000000000001
31
0
0
LINE
5
484
100
AcDbEntity
8
0
100
AcDbLine
10
-77.810334986095583
20
106.00000000000001
30
0
11
-77.810334986095583
21
101.49999999999999
31
0
0
LINE
5
485
100
AcDbEntity
8
0
100
AcDbLine
10
-96.210334986095575
20
196.5
30
0
11
-96.210334986095575
21
215.49999999999997
31
0
0
LINE
5
486
100
AcDbEntity
8
0
100
AcDbLine
10
-0.61033498609558201
20
234.5
30
0
11
-0.61033498609558201
21
230
31
0
0
LINE
5
487
100
AcDbEntity
8
0
100
AcDbLine
10
-0.61033498609558201
20
230
30
0
11
-19.610334986095584
21
230
31
0
0
LINE
5
488
100
AcDbEntity
8
0
100
AcDbLine
10
-0.61033498609558201
20
234.5
30
0
11
18.989665013904421
21
234.5
31
0
0
LINE
5
489
100
AcDbEntity
8
0
100
AcDbLine
10
-0.61033498609558201
20
230
30
0
11
-0.61033498609558201
21
234.5
31
0
0
LINE
5
490
100
AcDbEntity
8
0
100
AcDbLine
10
-19.610334986095584
20
230
30
0
11
-19.610334986095584
21
234.5
31
0
0
LINE
5
491
100
AcDbEntity
8
0
100
AcDbLine
10
-91.710334986095589
20
196.5
30
0
11
-91.710334986095589
21
177.5
31
0
0
LINE
5
492
100
AcDbEntity
8
0
100
AcDbLine
10
-91.710334986095589
20
196.5
30
0
11
-96.210334986095575
21
196.5
31
0
0
LINE
5
493
100
AcDbEntity
8
0
100
AcDbLine
10
37.089665013904416
20
177.49999999999997
30
0
11
31.989665013904414
21
177.49999999999997
31
0
0
LINE
5
494
100
AcDbEntity
8
0
100
AcDbLine
10
31.989665013904414
20
158.49999999999997
30
0
11
31.989665013904414
21
139.65000000000001
31
0
0
LINE
5
495
100
AcDbEntity
8
0
100
AcDbLine
10
36.789665013904418
20
120.65000000000001
30
0
11
31.989665013904414
21
120.64999999999998
31
0
0
LINE
5
496
100
AcDbEntity
8
0
100
AcDbLine
10
-77.510334986095586
20
230
30
0
11
-77.510334986095586
21
234.5
31
0
0
LINE
5
497
100
AcDbEntity
8
0
100
AcDbLine
10
32.289665013904418
20
230
30
0
11
18.989665013904421
21
230
31
0
0
LINE
5
498
100
AcDbEntity
8
0
100
AcDbLine
10
36.789665013904418
20
196.5
30
0
11
31.989665013904414
21
196.5
31
0
0
LINE
5
499
100
AcDbEntity
8
0
100
AcDbLine
10
31.989665013904414
20
120.64999999999998
30
0
11
36.489665013904414
21
120.64999999999998
31
0
0
LINE
5
500
100
AcDbEntity
8
0
100
AcDbLine
10
18.989665013904421
20
234.5
30
0
11
18.989665013904421
21
230
31
0
0
LINE
5
501
100
AcDbEntity
8
0
100
AcDbLine
10
18.989665013904421
20
230
30
0
11
18.989665013904421
21
234.5
31
0
0
LINE
5
502
100
AcDbEntity
8
0
100
AcDbLine
10
-19.610334986095584
20
234.5
30
0
11
-19.610334986095584
21
230
31
0
0
LINE
5
503
100
AcDbEntity
8
0
100
AcDbLine
10
-19.610334986095584
20
230
30
0
11
-0.61033498609558201
21
230
31
0
0
LINE
5
504
100
AcDbEntity
8
0
100
AcDbLine
10
31.989665013904414
20
196.5
30
0
11
31.989665013904414
21
177.49999999999997
31
0
0
LINE
5
505
100
AcDbEntity
8
0
100
AcDbLine
10
31.989665013904414
20
106.00000000000001
30
0
11
18.38966501390442
21
106.00000000000001
31
0
0
LINE
5
506
100
AcDbEntity
8
0
100
AcDbLine
10
-39.210334986095589
20
234.5
30
0
11
-19.610334986095584
21
234.5
31
0
0
LINE
5
507
100
AcDbEntity
8
0
100
AcDbLine
10
-39.810334986095583
20
106.00000000000001
30
0
11
-58.210334986095589
21
106.00000000000001
31
0
0
LINE
5
508
100
AcDbEntity
8
0
100
AcDbLine
10
18.38966501390442
20
106.00000000000001
30
0
11
36.489665013904414
21
106.00000000000001
31
0
0
LINE
5
509
100
AcDbEntity
8
0
100
AcDbLine
10
36.789665013904418
20
139.65000000000001
30
0
11
36.789665013904418
21
120.65000000000001
31
0
0
LINE
5
510
100
AcDbEntity
8
0
100
AcDbLine
10
18.989665013904421
20
230
30
0
11
32.289665013904418
21
230
31
0
0
LINE
5
511
100
AcDbEntity
8
0
100
AcDbLine
10
-57.910334986095584
20
234.5
30
0
11
-57.910334986095584
21
230
31
0
0
LINE
5
512
100
AcDbEntity
8
0
100
AcDbLine
10
36.489665013904414
20
177.5
30
0
11
36.489665013904414
21
158.49999999999997
31
0
0
LINE
5
513
100
AcDbEntity
8
0
100
AcDbLine
10
32.289665013904418
20
215.49999999999997
30
0
11
36.789665013904418
21
215.49999999999997
31
0
0
LINE
5
514
100
AcDbEntity
8
0
100
AcDbLine
10
-91.410334986095592
20
120.5
30
0
11
-96.510334986095572
21
120.5
31
0
0
LINE
5
515
100
AcDbEntity
8
0
100
AcDbLine
10
-1.2103349860955825
20
101.49999999999999
30
0
11
-1.2103349860955825
21
106.00000000000001
31
0
0
LINE
5
516
100
AcDbEntity
8
0
100
AcDbLine
10
32.289665013904418
20
230
30
0
11
32.289665013904418
21
215.49999999999997
31
0
0
LINE
5
517
100
AcDbEntity
8
0
100
AcDbLine
10
36.789665013904418
20
215.49999999999997
30
0
11
36.789665013904418
21
196.5
31
0
0
LINE
5
518
100
AcDbEntity
8
0
100
AcDbLine
10
-39.210334986095589
20
230
30
0
11
-39.210334986095589
21
234.5
31
0
0
LINE
5
519
100
AcDbEntity
8
0
100
AcDbLine
10
31.989665013904414
20
177.5
30
0
11
36.489665013904414
21
177.5
31
0
0
LINE
5
520
100
AcDbEntity
8
0
100
AcDbLine
10
-39.810334986095583
20
106.00000000000001
30
0
11
-39.810334986095583
21
101.49999999999999
31
0
0
LINE
5
521
100
AcDbEntity
8
0
100
AcDbLine
10
-91.710334986095589
20
106.00000000000001
30
0
11
-91.710334986095589
21
120.50000000000009
31
0
0
LINE
5
522
100
AcDbEntity
8
0
100
AcDbLine
10
18.38966501390442
20
106.00000000000001
30
0
11
18.38966501390442
21
101.50000000000003
31
0
0
LINE
5
523
100
AcDbEntity
8
0
100
AcDbLine
10
-92.010334986095586
20
215.5
30
0
11
-92.010334986095586
21
230
31
0
0
LINE
5
524
100
AcDbEntity
8
0
100
AcDbLine
10
-1.2103349860955825
20
101.50000000000003
30
0
11
-1.2103349860955825
21
106.00000000000001
31
0
0
LINE
5
525
100
AcDbEntity
8
0
100
AcDbLine
10
-96.210334986095575
20
215.49999999999997
30
0
11
-92.010334986095586
21
215.5
31
0
0
LINE
5
526
100
AcDbEntity
8
0
100
AcDbLine
10
37.387293301211969
20
234.5
30
0
11
37.089665013904416
21
234.5
31
0
0
LINE
5
527
100
AcDbEntity
8
0
100
AcDbLine
10
-20.210334986095582
20
101.49999999999999
30
0
11
-20.210334986095582
21
106.00000000000001
31
0
0
LINE
5
528
100
AcDbEntity
8
0
100
AcDbLine
10
-39.210334986095589
20
230.00000000000006
30
0
11
-57.910334986095584
21
230
31
0
0
LINE
5
529
100
AcDbEntity
8
0
100
AcDbLine
10
-91.710334986095589
20
158.5
30
0
11
-91.710334986095589
21
139.50000000000003
31
0
0
LINE
5
530
100
AcDbEntity
8
0
100
AcDbLine
10
-39.810334986095583
20
101.49999999999999
30
0
11
-20.210334986095582
21
101.49999999999999
31
0
0
LINE
5
531
100
AcDbEntity
8
0
100
AcDbLine
10
-39.210334986095589
20
234.5
30
0
11
-39.210334986095589
21
230.00000000000006
31
0
0
LINE
5
532
100
AcDbEntity
8
0
100
AcDbLine
10
-77.810334986095583
20
101.49999999999999
30
0
11
-58.210334986095589
21
101.49999999999999
31
0
0
LINE
5
533
100
AcDbEntity
8
0
100
AcDbLine
10
-1.2103349860955825
20
106.00000000000001
30
0
11
-20.210334986095582
21
106.00000000000001
31
0
0
LINE
5
534
100
AcDbEntity
8
0
100
AcDbLine
10
-77.810334986095583
20
106.00000000000001
30
0
11
-91.710334986095589
21
106.00000000000001
31
0
0
LINE
5
535
100
AcDbEntity
8
0
100
AcDbLine
10
-91.710334986095589
20
139.50000000000003
30
0
11
-91.710334986095589
21
158.5
31
0
0
LINE
5
536
100
AcDbEntity
8
0
100
AcDbLine
10
36.489665013904414
20
158.49999999999997
30
0
11
31.989665013904414
21
158.49999999999997
31
0
0
LINE
5
537
100
AcDbEntity
8
0
100
AcDbLine
10
-91.710334986095589
20
177.5
30
0
11
-91.710334986095589
21
196.5
31
0
0
LINE
5
538
100
AcDbEntity
8
0
100
AcDbLine
10
-77.510334986095586
20
234.5
30
0
11
-57.910334986095584
21
234.5
31
0
0
LINE
5
539
100
AcDbEntity
8
0
100
AcDbLine
10
-58.210334986095589
20
106.00000000000001
30
0
11
-58.210334986095589
21
101.49999999999999
31
0
0
LINE
5
540
100
AcDbEntity
8
0
100
AcDbLine
10
36.489665013904414
20
139.65000000000001
30
0
11
31.989665013904414
21
139.65000000000001
31
0
0
LINE
5
541
100
AcDbEntity
8
0
100
AcDbLine
10
31.989665013904414
20
120.64999999999998
30
0
11
31.989665013904414
21
106.00000000000001
31
0
0
LINE
5
542
100
AcDbEntity
8
0
100
AcDbLine
10
-58.210334986095589
20
101.49999999999999
30
0
11
-58.210334986095589
21
106.00000000000001
31
0
0
LINE
5
543
100
AcDbEntity
8
0
100
AcDbLine
10
-92.010334986095586
20
230
30
0
11
-77.510334986095586
21
230
31
0
0
LINE
5
544
100
AcDbEntity
8
0
100
AcDbLine
10
-57.910334986095584
20
230
30
0
11
-57.910334986095584
21
234.5
31
0
0
LINE
5
545
100
AcDbEntity
8
0
100
AcDbLine
10
-92.010334986095586
20
215.5
30
0
11
-95.910334986095592
21
215.5
31
0
0
LINE
5
546
100
AcDbEntity
8
0
100
AcDbLine
10
31.989665013904414
20
196.5
30
0
11
37.089665013904416
21
196.5
31
0
0
LINE
5
547
100
AcDbEntity
8
0
100
AcDbLine
10
-91.710334986095589
20
158.5
30
0
11
-96.510334986095572
21
158.49999999999997
31
0
0
LINE
5
548
100
AcDbEntity
8
0
100
AcDbLine
10
36.789665013904418
20
215.49999999999997
30
0
11
37.387293301211969
21
215.5
31
0
0
LINE
5
549
100
AcDbEntity
8
0
100
AcDbLine
10
-77.810334986095583
20
106.00000000000001
30
0
11
-91.710334986095589
21
106.00000000000001
31
0
0
LINE
5
550
100
AcDbEntity
8
0
100
AcDbLine
10
-96.510334986095572
20
158.49999999999997
30
0
11
-96.510334986095572
21
177.5
31
0
0
LINE
5
551
100
AcDbEntity
8
0
100
AcDbLine
10
-39.810334986095583
20
101.49999999999999
30
0
11
-39.810334986095583
21
106.00000000000001
31
0
0
LINE
5
552
100
AcDbEntity
8
0
100
AcDbLine
10
-77.810334986095583
20
101.49999999999999
30
0
11
-77.810334986095583
21
106.00000000000001
31
0
0
LINE
5
553
100
AcDbEntity
8
0
100
AcDbLine
10
-92.010334986095586
20
230
30
0
11
-77.510334986095586
21
230
31
0
0
LINE
5
554
100
AcDbEntity
8
0
100
AcDbLine
10
-57.910334986095584
20
230
30
0
11
-39.210334986095589
21
230
31
0
0
LINE
5
555
100
AcDbEntity
8
0
100
AcDbLine
10
-1.2103349860955825
20
106.00000000000001
30
0
11
-20.210334986095582
21
106.00000000000001
31
0
0
LINE
5
556
100
AcDbEntity
8
0
100
AcDbLine
10
-96.510334986095572
20
177.5
30
0
11
-92.010334986095586
21
177.5
31
0
0
LINE
5
557
100
AcDbEntity
8
0
100
AcDbLine
10
31.989665013904414
20
106.00000000000001
30
0
11
31.989665013904414
21
120.64999999999998
31
0
0
LINE
5
558
100
AcDbEntity
8
0
100
AcDbLine
10
-96.510334986095572
20
139.5
30
0
11
-91.410334986095592
21
139.5
31
0
0
LINE
5
559
100
AcDbEntity
8
0
100
AcDbLine
10
36.489665013904414
20
158.49999999999997
30
0
11
31.989665013904414
21
158.49999999999997
31
0
0
LINE
5
560
100
AcDbEntity
8
0
100
AcDbLine
10
-96.510334986095572
20
120.5
30
0
11
-96.510334986095572
21
139.5
31
0
0
LINE
5
561
100
AcDbEntity
8
0
100
AcDbLine
10
18.38966501390442
20
101.50000000000003
30
0
11
-1.2103349860955825
21
101.50000000000003
31
0
0
LINE
5
562
100
AcDbEntity
8
0
100
AcDbLine
10
31.989665013904414
20
139.65000000000001
30
0
11
36.789665013904418
21
139.65000000000001
31
0
0
LINE
5
563
100
AcDbEntity
8
0
100
AcDbLine
10
31.989665013904414
20
139.65000000000001
30
0
11
31.989665013904414
21
158.49999999999997
31
0
0
LINE
5
564
100
AcDbEntity
8
0
100
AcDbLine
10
-20.210334986095582
20
106.00000000000001
30
0
11
-20.210334986095582
21
101.49999999999999
31
0
0
LINE
5
565
100
AcDbEntity
8
0
100
AcDbLine
10
-91.710334986095589
20
139.50000000000003
30
0
11
-96.510334986095572
21
139.5
31
0
0
LINE
5
566
100
AcDbEntity
8
0
100
AcDbLine
10
-96.210334986095575
20
196.5
30
0
11
-91.710334986095589
21
196.5
31
0
0
LINE
5
567
100
AcDbEntity
8
0
100
AcDbLine
10
-91.710334986095589
20
120.50000000000009
30
0
11
-91.410334986095592
21
120.5
31
0
0
LINE
5
568
100
AcDbEntity
8
0
100
AcDbLine
10
31.989665013904414
20
158.49999999999997
30
0
11
36.489665013904414
21
158.49999999999997
31
0
0
LINE
5
569
100
AcDbEntity
8
0
100
AcDbLine
10
-96.510334986095572
20
120.5
30
0
11
-91.710334986095589
21
120.50000000000009
31
0
0
LINE
5
570
100
AcDbEntity
8
0
100
AcDbLine
10
-91.710334986095589
20
177.5
30
0
11
-96.510334986095572
21
177.5
31
0
0
LINE
5
571
100
AcDbEntity
8
0
100
AcDbLine
10
243.70412302167773
20
-199.92922466139223
30
0
11
243.70412302167773
21
-180.9292246613922
31
0
0
LINE
5
572
100
AcDbEntity
8
0
100
AcDbLine
10
210.20412302167773
20
-252.4292246613922
30
0
11
229.20412302167773
21
-252.4292246613922
31
0
0
LINE
5
573
100
AcDbEntity
8
0
100
AcDbLine
10
243.70412302167773
20
-199.92922466139223
30
0
11
243.70412302167773
21
-180.9292246613922
31
0
0
LINE
5
574
100
AcDbEntity
8
0
100
AcDbLine
10
229.20412302167773
20
-252.4292246613922
30
0
11
210.20412302167773
21
-252.4292246613922
31
0
0
LINE
5
575
100
AcDbEntity
8
0
100
AcDbLine
10
243.70412302167773
20
-161.92922466139223
30
0
11
243.70412302167773
21
-142.9292246613922
31
0
0
LINE
5
576
100
AcDbEntity
8
0
100
AcDbLine
10
115.20412302167773
20
-180.9292246613922
30
0
11
119.70412302167773
21
-180.9292246613922
31
0
0
LINE
5
577
100
AcDbEntity
8
0
100
AcDbLine
10
243.70412302167773
20
-180.9292246613922
30
0
11
248.20412302167773
21
-180.9292246613922
31
0
0
LINE
5
578
100
AcDbEntity
8
0
100
AcDbLine
10
134.20412302167773
20
-252.4292246613922
30
0
11
134.20412302167773
21
-256.92922466139225
31
0
0
LINE
5
579
100
AcDbEntity
8
0
100
AcDbLine
10
119.70412302167773
20
-180.9292246613922
30
0
11
115.20412302167773
21
-180.9292246613922
31
0
0
LINE
5
580
100
AcDbEntity
8
0
100
AcDbLine
10
172.20412302167773
20
-252.4292246613922
30
0
11
172.20412302167773
21
-256.92922466139225
31
0
0
LINE
5
581
100
AcDbEntity
8
0
100
AcDbLine
10
119.70412302167773
20
-256.92922466139225
30
0
11
134.20412302167773
21
-256.92922466139225
31
0
0
LINE
5
582
100
AcDbEntity
8
0
100
AcDbLine
10
248.50175130898526
20
-123.92922466139223
30
0
11
248.20412302167773
21
-123.92922466139223
31
0
0
LINE
5
583
100
AcDbEntity
8
0
100
AcDbLine
10
119.70412302167773
20
-199.92922466139223
30
0
11
119.70412302167773
21
-180.9292246613922
31
0
0
LINE
5
584
100
AcDbEntity
8
0
100
AcDbLine
10
229.20412302167776
20
-128.42922391633414
30
0
11
210.20412302167773
21
-128.42922391633414
31
0
0
LINE
5
585
100
AcDbEntity
8
0
100
AcDbLine
10
115.20412302167773
20
-123.92922466139223
30
0
11
115.20412302167773
21
-128.4292246613922
31
0
0
LINE
5
586
100
AcDbEntity
8
0
100
AcDbLine
10
119.70412302167773
20
-237.92922466139225
30
0
11
119.70412302167773
21
-218.92922466139223
31
0
0
LINE
5
587
100
AcDbEntity
8
0
100
AcDbLine
10
115.20412302167773
20
-237.92922466139225
30
0
11
119.70412302167773
21
-237.92922466139225
31
0
0
LINE
5
588
100
AcDbEntity
8
0
100
AcDbLine
10
115.20412302167772
20
-252.4292246613922
30
0
11
115.20412302167773
21
-237.92922466139225
31
0
0
LINE
5
589
100
AcDbEntity
8
0
100
AcDbLine
10
248.20412302167773
20
-256.92922466139225
30
0
11
229.20412302167773
21
-256.92922466139225
31
0
0
LINE
5
590
100
AcDbEntity
8
0
100
AcDbLine
10
248.20412302167773
20
-123.92922466139223
30
0
11
248.20412302167773
21
-128.4292246613922
31
0
0
LINE
5
591
100
AcDbEntity
8
0
100
AcDbLine
10
119.70412302167773
20
-161.92922466139223
30
0
11
115.20412302167773
21
-161.92922466139223
31
0
0
LINE
5
592
100
AcDbEntity
8
0
100
AcDbLine
10
210.20412302167773
20
-256.92922466139225
30
0
11
210.20412302167773
21
-252.4292246613922
31
0
0
LINE
5
593
100
AcDbEntity
8
0
100
AcDbLine
10
253.00175130898532
20
-199.92922466139223
30
0
11
243.70412302167773
21
-199.92922466139223
31
0
0
LINE
5
594
100
AcDbEntity
8
0
100
AcDbLine
10
229.20412302167773
20
-256.92922466139225
30
0
11
229.20412302167773
21
-252.4292246613922
31
0
0
LINE
5
595
100
AcDbEntity
8
0
100
AcDbLine
10
229.20412302167773
20
-252.4292246613922
30
0
11
229.20412302167773
21
-256.92922466139225
31
0
0
LINE
5
596
100
AcDbEntity
8
0
100
AcDbLine
10
172.20412302167773
20
-123.92922466139223
30
0
11
172.20412302167773
21
-128.4292246613922
31
0
0
LINE
5
597
100
AcDbEntity
8
0
100
AcDbLine
10
248.20412302167773
20
-199.92922466139223
30
0
11
248.20412302167773
21
-218.92922466139223
31
0
0
LINE
5
598
100
AcDbEntity
8
0
100
AcDbLine
10
243.70412302167773
20
-127.65322463158988
30
0
11
243.70412302167773
21
-128.4292246613922
31
0
0
LINE
5
599
100
AcDbEntity
8
0
100
AcDbLine
10
191.20412302167773
20
-252.4292246613922
30
0
11
172.20412302167773
21
-252.4292246613922
31
0
0
LINE
5
600
100
AcDbEntity
8
0
100
AcDbLine
10
119.70412302167773
20
-218.92922466139223
30
0
11
115.20412302167773
21
-218.92922466139223
31
0
0
LINE
5
601
100
AcDbEntity
8
0
100
AcDbLine
10
191.20412302167773
20
-256.92922466139225
30
0
11
191.20412302167773
21
-252.4292246613922
31
0
0
LINE
5
602
100
AcDbEntity
8
0
100
AcDbLine
10
191.20412302167776
20
-123.92922466139223
30
0
11
191.20412302167776
21
-128.42922391633414
31
0
0
LINE
5
603
100
AcDbEntity
8
0
100
AcDbLine
10
229.20412302167776
20
-123.92922466139223
30
0
11
248.20412302167773
21
-123.92922466139223
31
0
0
LINE
5
604
100
AcDbEntity
8
0
100
AcDbLine
10
153.20412302167773
20
-252.4292246613922
30
0
11
134.20412302167773
21
-252.4292246613922
31
0
0
LINE
5
605
100
AcDbEntity
8
0
100
AcDbLine
10
115.20412302167772
20
-252.4292246613922
30
0
11
115.20412302167772
21
-256.92922466139225
31
0
0
LINE
5
606
100
AcDbEntity
8
0
100
AcDbLine
10
243.70412302167773
20
-161.92922466139223
30
0
11
248.20412302167773
21
-161.92922466139223
31
0
0
LINE
5
607
100
AcDbEntity
8
0
100
AcDbLine
10
243.70412302167773
20
-237.92922466139225
30
0
11
243.70412302167773
21
-218.92922466139223
31
0
0
LINE
5
608
100
AcDbEntity
8
0
100
AcDbLine
10
191.20412302167776
20
-123.92922466139223
30
0
11
210.20412302167773
21
-123.92922466139223
31
0
0
LINE
5
609
100
AcDbEntity
8
0
100
AcDbLine
10
248.20412302167773
20
-252.4292246613922
30
0
11
248.20412302167773
21
-256.92922466139225
31
0
0
LINE
5
610
100
AcDbEntity
8
0
100
AcDbLine
10
119.70412302167773
20
-180.9292246613922
30
0
11
119.70412302167773
21
-199.92922466139223
31
0
0
LINE
5
611
100
AcDbEntity
8
0
100
AcDbLine
10
119.70412302167773
20
-199.92922466139223
30
0
11
115.20412302167773
21
-199.92922466139223
31
0
0
LINE
5
612
100
AcDbEntity
8
0
100
AcDbLine
10
248.20412302167773
20
-142.9292246613922
30
0
11
248.50175130898526
21
-142.9292246613922
31
0
0
LINE
5
613
100
AcDbEntity
8
0
100
AcDbLine
10
248.20412302167773
20
-256.92922466139225
30
0
11
243.70412302167773
21
-256.92922466139225
31
0
0
LINE
5
614
100
AcDbEntity
8
0
100
AcDbLine
10
115.20412302167773
20
-218.92922466139223
30
0
11
115.20412302167773
21
-199.92922466139223
31
0
0
LINE
5
615
100
AcDbEntity
8
0
100
AcDbLine
10
191.20412302167776
20
-128.4292246613922
30
0
11
191.20412302167776
21
-123.92922466139223
31
0
0
LINE
5
616
100
AcDbEntity
8
0
100
AcDbLine
10
153.20412302167773
20
-128.4292246613922
30
0
11
153.20412302167773
21
-123.92922466139223
31
0
0
LINE
5
617
100
AcDbEntity
8
0
100
AcDbLine
10
210.20412302167773
20
-128.42922391633414
30
0
11
229.20412302167776
21
-128.4292246613922
31
0
0
LINE
5
618
100
AcDbEntity
8
0
100
AcDbLine
10
134.20412302167773
20
-128.4292246613922
30
0
11
134.20412302167773
21
-123.92922466139223
31
0
0
LINE
5
619
100
AcDbEntity
8
0
100
AcDbLine
10
210.20412302167773
20
-123.92922466139223
30
0
11
210.20412302167773
21
-128.4292246613922
31
0
0
LINE
5
620
100
AcDbEntity
8
0
100
AcDbLine
10
229.20412302167776
20
-123.92922466139223
30
0
11
229.20412302167776
21
-128.42922391633414
31
0
0
LINE
5
621
100
AcDbEntity
8
0
100
AcDbLine
10
191.20412302167773
20
-252.4292246613922
30
0
11
172.20412302167773
21
-252.4292246613922
31
0
0
LINE
5
622
100
AcDbEntity
8
0
100
AcDbLine
10
243.70412302167773
20
-142.9292246613922
30
0
11
248.20412302167773
21
-142.9292246613922
31
0
0
LINE
5
623
100
AcDbEntity
8
0
100
AcDbLine
10
153.20412302167773
20
-252.4292246613922
30
0
11
153.20412302167773
21
-256.92922466139225
31
0
0
LINE
5
624
100
AcDbEntity
8
0
100
AcDbLine
10
153.20412302167773
20
-256.92922466139225
30
0
11
172.20412302167773
21
-256.92922466139225
31
0
0
LINE
5
625
100
AcDbEntity
8
0
100
AcDbLine
10
119.70412302167773
20
-142.9292246613922
30
0
11
115.20412302167773
21
-142.9292246613922
31
0
0
LINE
5
626
100
AcDbEntity
8
0
100
AcDbLine
10
115.20412302167773
20
-218.92922466139223
30
0
11
119.70412302167773
21
-218.92922466139223
31
0
0
LINE
5
627
100
AcDbEntity
8
0
100
AcDbLine
10
134.20412302167773
20
-256.92922466139225
30
0
11
134.20412302167773
21
-252.4292246613922
31
0
0
LINE
5
628
100
AcDbEntity
8
0
100
AcDbLine
10
210.20412302167773
20
-128.42922391633414
30
0
11
210.20412302167773
21
-123.92922466139223
31
0
0
LINE
5
629
100
AcDbEntity
8
0
100
AcDbLine
10
172.20412302167773
20
-256.92922466139225
30
0
11
172.20412302167773
21
-252.4292246613922
31
0
0
LINE
5
630
100
AcDbEntity
8
0
100
AcDbLine
10
153.20412302167773
20
-256.92922466139225
30
0
11
153.20412302167773
21
-252.4292246613922
31
0
0
LINE
5
631
100
AcDbEntity
8
0
100
AcDbLine
10
153.20412302167773
20
-123.92922466139223
30
0
11
153.20412302167773
21
-128.4292246613922
31
0
0
LINE
5
632
100
AcDbEntity
8
0
100
AcDbLine
10
248.20412302167773
20
-123.92922466139223
30
0
11
248.20412302167773
21
-142.9292246613922
31
0
0
LINE
5
633
100
AcDbEntity
8
0
100
AcDbLine
10
115.20412302167773
20
-123.92922466139223
30
0
11
119.70412302167773
21
-123.92922466139223
31
0
0
LINE
5
634
100
AcDbEntity
8
0
100
AcDbLine
10
115.20412302167773
20
-161.92922466139223
30
0
11
119.70412302167773
21
-161.92922466139223
31
0
0
LINE
5
635
100
AcDbEntity
8
0
100
AcDbLine
10
115.20412302167772
20
-256.92922466139225
30
0
11
119.70412302167773
21
-256.92922466139225
31
0
0
LINE
5
636
100
AcDbEntity
8
0
100
AcDbLine
10
191.20412302167773
20
-252.4292246613922
30
0
11
191.20412302167773
21
-256.92922466139225
31
0
0
LINE
5
637
100
AcDbEntity
8
0
100
AcDbLine
10
248.20412302167773
20
-237.92922466139225
30
0
11
248.20412302167773
21
-256.92922466139225
31
0
0
LINE
5
638
100
AcDbEntity
8
0
100
AcDbLine
10
210.20412302167773
20
-256.92922466139225
30
0
11
210.20412302167773
21
-252.4292246613922
31
0
0
LINE
5
639
100
AcDbEntity
8
0
100
AcDbLine
10
191.20412302167773
20
-256.92922466139225
30
0
11
210.20412302167773
21
-256.92922466139225
31
0
0
LINE
5
640
100
AcDbEntity
8
0
100
AcDbLine
10
115.20412302167773
20
-199.92922466139223
30
0
11
119.70412302167773
21
-199.92922466139223
31
0
0
LINE
5
641
100
AcDbEntity
8
0
100
AcDbLine
10
243.70412302167773
20
-237.92922466139225
30
0
11
248.20412302167773
21
-237.92922466139225
31
0
0
LINE
5
642
100
AcDbEntity
8
0
100
AcDbLine
10
248.20412302167773
20
-161.92922466139223
30
0
11
248.20412302167773
21
-180.9292246613922
31
0
0
LINE
5
643
100
AcDbEntity
8
0
100
AcDbLine
10
191.20412302167776
20
-128.42922391633414
30
0
11
172.20412302167773
21
-128.42922391633414
31
0
0
LINE
5
644
100
AcDbEntity
8
0
100
AcDbLine
10
248.20412302167773
20
-218.92922466139223
30
0
11
243.70412302167773
21
-218.92922466139223
31
0
0
LINE
5
645
100
AcDbEntity
8
0
100
AcDbLine
10
243.70412302167773
20
-142.9292246613922
30
0
11
243.70412302167773
21
-161.92922466139223
31
0
0
LINE
5
646
100
AcDbEntity
8
0
100
AcDbLine
10
243.70412302167773
20
-218.92922466139223
30
0
11
248.20412302167773
21
-218.92922466139223
31
0
0
LINE
5
647
100
AcDbEntity
8
0
100
AcDbLine
10
115.20412302167773
20
-180.9292246613922
30
0
11
115.20412302167773
21
-161.92922466139223
31
0
0
LINE
5
648
100
AcDbEntity
8
0
100
AcDbLine
10
115.20412302167773
20
-256.92922466139225
30
0
11
115.20412302167772
21
-252.4292246613922
31
0
0
LINE
5
649
100
AcDbEntity
8
0
100
AcDbLine
10
243.70412302167773
20
-199.92922466139223
30
0
11
248.20412302167773
21
-199.92922466139223
31
0
0
LINE
5
650
100
AcDbEntity
8
0
100
AcDbLine
10
248.20412302167773
20
-237.92922466139225
30
0
11
243.70412302167773
21
-237.92922466139225
31
0
0
LINE
5
651
100
AcDbEntity
8
0
100
AcDbLine
10
243.70412302167773
20
-180.9292246613922
30
0
11
243.70412302167773
21
-199.92922466139223
31
0
0
LINE
5
652
100
AcDbEntity
8
0
100
AcDbLine
10
248.20412302167773
20
-180.9292246613922
30
0
11
243.70412302167773
21
-180.9292246613922
31
0
0
LINE
5
653
100
AcDbEntity
8
0
100
AcDbLine
10
115.20412302167773
20
-142.9292246613922
30
0
11
119.70412302167773
21
-142.9292246613922
31
0
0
LINE
5
654
100
AcDbEntity
8
0
100
AcDbLine
10
248.20412302167773
20
-199.92922466139223
30
0
11
243.70412302167773
21
-199.92922466139223
31
0
0
LINE
5
655
100
AcDbEntity
8
0
100
AcDbLine
10
153.20412302167773
20
-252.4292246613922
30
0
11
134.20412302167773
21
-252.4292246613922
31
0
0
LINE
5
656
100
AcDbEntity
8
0
100
AcDbLine
10
243.70412302167773
20
-218.92922466139223
30
0
11
243.70412302167773
21
-237.92922466139225
31
0
0
LINE
5
657
100
AcDbEntity
8
0
100
AcDbLine
10
115.20412302167773
20
-123.92922466139223
30
0
11
119.70412302167773
21
-123.92922466139223
31
0
0
LINE
5
658
100
AcDbEntity
8
0
100
AcDbLine
10
119.70412302167773
20
-142.9292246613922
30
0
11
119.70412302167773
21
-161.92922466139223
31
0
0
LINE
5
659
100
AcDbEntity
8
0
100
AcDbLine
10
153.20412302167773
20
-123.92922466139223
30
0
11
172.20412302167773
21
-123.92922466139223
31
0
0
LINE
5
660
100
AcDbEntity
8
0
100
AcDbLine
10
134.20412302167773
20
-128.4292246613922
30
0
11
134.20412302167773
21
-123.92922466139223
31
0
0
LINE
5
661
100
AcDbEntity
8
0
100
AcDbLine
10
229.20412302167776
20
-128.4292246613922
30
0
11
229.20412302167776
21
-123.92922466139223
31
0
0
LINE
5
662
100
AcDbEntity
8
0
100
AcDbLine
10
248.20412302167773
20
-161.92922466139223
30
0
11
243.70412302167773
21
-161.92922466139223
31
0
0
LINE
5
663
100
AcDbEntity
8
0
100
AcDbLine
10
134.20412302167773
20
-123.92922466139223
30
0
11
115.20412302167773
21
-123.92922466139223
31
0
0
LINE
5
664
100
AcDbEntity
8
0
100
AcDbLine
10
115.20412302167773
20
-142.9292246613922
30
0
11
115.20412302167773
21
-123.92922466139223
31
0
0
LINE
5
665
100
AcDbEntity
8
0
100
AcDbLine
10
119.70412302167773
20
-237.92922466139225
30
0
11
115.20412302167773
21
-237.92922466139225
31
0
0
LINE
5
666
100
AcDbEntity
8
0
100
AcDbLine
10
153.20412302167773
20
-128.4292246613922
30
0
11
134.20412302167773
21
-128.4292246613922
31
0
0
LINE
5
667
100
AcDbEntity
8
0
100
AcDbLine
10
119.70412302167773
20
-256.92922466139225
30
0
11
115.20412302167773
21
-256.92922466139225
31
0
0
LINE
5
668
100
AcDbEntity
8
0
100
AcDbLine
10
115.20412302167773
20
-128.4292246613922
30
0
11
115.20412302167773
21
-123.92922466139223
31
0
0
LINE
5
669
100
AcDbEntity
8
0
100
AcDbLine
10
248.50175130898526
20
-142.9292246613922
30
0
11
248.50175130898526
21
-123.92922466139223
31
0
0
LINE
5
670
100
AcDbEntity
8
0
100
AcDbLine
10
119.70412302167773
20
-218.92922466139223
30
0
11
119.70412302167773
21
-237.92922466139225
31
0
0
LINE
5
671
100
AcDbEntity
8
0
100
AcDbLine
10
134.20412302167773
20
-128.4292246613922
30
0
11
153.20412302167773
21
-128.4292246613922
31
0
0
LINE
5
672
100
AcDbEntity
8
0
100
AcDbLine
10
172.20412302167773
20
-128.42922391633414
30
0
11
172.20412302167773
21
-123.92922466139223
31
0
0
LINE
5
673
100
AcDbEntity
8
0
100
AcDbLine
10
119.70412302167773
20
-161.92922466139223
30
0
11
119.70412302167773
21
-142.9292246613922
31
0
0
LINE
5
674
100
AcDbEntity
8
0
100
AcDbLine
10
172.20412302167773
20
-128.42922391633414
30
0
11
191.20412302167776
21
-128.42922391633414
31
0
0
LINE
5
675
100
AcDbEntity
8
0
100
AcDbLine
10
-190.31033498609563
20
50.086526345591793
30
0
11
-171.91033498609568
21
50.086526345591793
31
0
0
LINE
5
676
100
AcDbEntity
8
0
100
AcDbLine
10
-266.60997440917248
20
50.086526345591793
30
0
11
-248.51033498609564
21
50.086526345591793
31
0
0
LINE
5
677
100
AcDbEntity
8
0
100
AcDbLine
10
-228.91033498609562
20
50.086526345591793
30
0
11
-209.91033498609565
21
50.086526345591778
31
0
0
LINE
5
678
100
AcDbEntity
8
0
100
AcDbLine
10
209.68966501390437
20
50.086526345591778
30
0
11
228.08966501390432
21
50.086526345591793
31
0
0
LINE
5
679
100
AcDbEntity
8
0
100
AcDbLine
10
133.39002559082752
20
50.086526345591793
30
0
11
151.48966501390436
21
50.086526345591793
31
0
0
LINE
5
680
100
AcDbEntity
8
0
100
AcDbLine
10
171.08966501390438
20
50.086526345591793
30
0
11
190.08966501390435
21
50.086526345591778
31
0
0
CIRCLE
5
681
100
AcDbEntity
8
0
100
AcDbCircle
10
181.70412302167773
20
-190.42922391633414
30
0
40
50
210
0
220
0
230
1
0
CIRCLE
5
682
100
AcDbEntity
8
0
100
AcDbCircle
10
181.70412302167773
20
159.57077608366586
30
0
40
51.000000000000007
210
0
220
0
230
1
0
CIRCLE
5
683
100
AcDbEntity
8
0
100
AcDbCircle
10
181.70412302167773
20
159.57077608366586
30
0
40
50
210
0
220
0
230
1
0
CIRCLE
5
684
100
AcDbEntity
8
0
100
AcDbCircle
10
181.70412302167773
20
159.57077608366586
30
0
40
50
210
0
220
0
230
1
0
CIRCLE
5
685
100
AcDbEntity
8
0
100
AcDbCircle
10
181.70412302167773
20
159.57077608366586
30
0
40
50
210
0
220
0
230
1
0
CIRCLE
5
686
100
AcDbEntity
8
0
100
AcDbCircle
10
-243.29587697832227
20
159.57077608366586
30
0
40
50
210
0
220
0
230
1
0
CIRCLE
5
687
100
AcDbEntity
8
0
100
AcDbCircle
10
-243.29587697832227
20
159.57077608366586
30
0
40
50
210
0
220
0
230
1
0
CIRCLE
5
688
100
AcDbEntity
8
0
100
AcDbCircle
10
-243.29587697832227
20
159.57077608366586
30
0
40
50
210
0
220
0
230
1
0
CIRCLE
5
689
100
AcDbEntity
8
0
100
AcDbCircle
10
-243.29587697832227
20
159.57077608366586
30
0
40
51.000000000000007
210
0
220
0
230
1
0
CIRCLE
5
690
100
AcDbEntity
8
0
100
AcDbCircle
10
-243.29587697832227
20
159.57077608366586
30
0
40
50
210
0
220
0
230
1
0
CIRCLE
5
691
100
AcDbEntity
8
0
100
AcDbCircle
10
-243.29587697832227
20
159.57077608366586
30
0
40
50
210
0
220
0
230
1
0
CIRCLE
5
692
100
AcDbEntity
8
0
100
AcDbCircle
10
-243.29587697832227
20
159.57077608366586
30
0
40
50
210
0
220
0
230
1
0
CIRCLE
5
693
100
AcDbEntity
8
0
100
AcDbCircle
10
-243.29587697832227
20
159.57077608366586
30
0
40
51.000000000000007
210
0
220
0
230
1
0
CIRCLE
5
694
100
AcDbEntity
8
0
100
AcDbCircle
10
-218.29587697832227
20
-215.42922391633414
30
0
40
50
210
0
220
0
230
1
0
CIRCLE
5
695
100
AcDbEntity
8
0
100
AcDbCircle
10
-218.29587697832227
20
-215.42922391633414
30
0
40
50
210
0
220
0
230
1
0
CIRCLE
5
696
100
AcDbEntity
8
0
100
AcDbCircle
10
-218.29587697832227
20
-215.42922391633414
30
0
40
50
210
0
220
0
230
1
0
CIRCLE
5
697
100
AcDbEntity
8
0
100
AcDbCircle
10
-218.29587697832227
20
-215.42922391633414
30
0
40
51.000000000000007
210
0
220
0
230
1
0
ENDSEC
0
SECTION
2
OBJECTS
0
DICTIONARY
5
C
100
AcDbDictionary
3
ACAD_GROUP
350
D
3
ACAD_MLINESTYLE
350
17
0
DICTIONARY
5
D
100
AcDbDictionary
0
DICTIONARY
5
1A
330
C
100
AcDbDictionary
0
DICTIONARY
5
17
100
AcDbDictionary
0
ENDSEC
0
EOF
